<?xml version="1.0" encoding="UTF-8" standalone="no"?>
<!-- Created with Inkscape (http://www.inkscape.org/) -->

<svg
   width="512"
   height="512"
   viewBox="0 0 135.46667 135.46667"
   version="1.1"
   id="svg196"
   inkscape:version="1.2.2 (732a01da63, 2022-12-09)"
   sodipodi:docname="logo-favicon.svg"
   xmlns:inkscape="http://www.inkscape.org/namespaces/inkscape"
   xmlns:sodipodi="http://sodipodi.sourceforge.net/DTD/sodipodi-0.dtd"
   xmlns="http://www.w3.org/2000/svg"
   xmlns:svg="http://www.w3.org/2000/svg">
  <sodipodi:namedview
     id="namedview198"
     pagecolor="#ffffff"
     bordercolor="#000000"
     borderopacity="0.25"
     inkscape:showpageshadow="2"
     inkscape:pageopacity="0.0"
     inkscape:pagecheckerboard="0"
     inkscape:deskcolor="#d1d1d1"
     inkscape:document-units="mm"
     showgrid="false"
     inkscape:zoom="0.64579133"
     inkscape:cx="336.7961"
     inkscape:cy="231.49893"
     inkscape:window-width="1920"
     inkscape:window-height="1001"
     inkscape:window-x="-9"
     inkscape:window-y="-9"
     inkscape:window-maximized="1"
     inkscape:current-layer="layer1" />
  <defs
     id="defs193" />
  <g
     inkscape:label="Layer 1"
     inkscape:groupmode="layer"
     id="layer1">
    <g
       id="g376"
       transform="matrix(0.11114115,0,0,0.11114115,31.133721,-8.645287)">
      <path
         id="rect356"
         style="fill:#ed2227;fill-opacity:1;stroke-width:27.8694;stroke-linecap:round;stroke-linejoin:round"
         d="m -569.60554,-274.43079 v 22.225 22.225 l 33.93281,0.0114 33.93281,0.0114 -5.67149,5.57434 c -7.10474,6.98318 -13.71582,13.0731 -23.05078,21.23385 -4.01009,3.50566 -10.43948,9.12427 -14.2875,12.48554 -9.0576,7.91184 -15.94804,14.25838 -22.86218,21.05866 l -5.56555,5.4746 16.18299,16.1985 16.183,16.19849 6.71483,-6.45955 c 10.38322,-9.98799 12.83113,-12.19145 35.41128,-31.87506 8.4415,-7.35863 14.97471,-13.34203 23.12055,-21.17545 l 6.10402,-5.86993 0.0672,33.70492 0.0672,33.70544 h 22.22396 22.22397 v -72.36354 -72.36354 H -497.242 Z" />
      <path
         id="rect358"
         style="fill:#f99d1b;fill-opacity:1;stroke-width:27.8694;stroke-linecap:round;stroke-linejoin:round"
         d="m -376.19513,-343.07157 c -3.95459,0.0166 -4.58473,0.085 -6.69106,0.72916 -4.48672,1.37208 -7.98717,3.50729 -11.19725,6.83007 -3.1155,3.2249 -5.11865,6.79509 -6.38669,11.38277 -0.36202,1.3098 -0.45977,2.6617 -0.44597,6.17482 0.0161,4.10097 0.0803,4.70332 0.72916,6.82335 2.79905,9.14511 9.82968,15.61012 19.22931,17.68265 2.95896,0.65241 8.16878,0.52801 11.18744,-0.26666 5.73007,-1.50844 11.27116,-5.36266 14.46061,-10.05933 9.8653,-14.5273 2.64814,-34.07773 -14.28853,-38.70565 -1.92821,-0.52689 -2.82438,-0.60698 -6.59702,-0.59118 z" />
      <path
         id="rect360"
         style="fill:#bdbec0;fill-opacity:1;stroke-width:27.8694;stroke-linecap:round;stroke-linejoin:round"
         d="m 491.21963,-102.65782 c -0.92806,-0.0479 -2.01676,-0.0392 -3.52227,0.0134 -4.40374,0.15404 -6.50679,0.64072 -9.94978,2.30167 -9.83138,4.742787 -14.8083,15.602568 -12.41319,27.086716 1.80716,8.664992 8.9156,15.71031 17.92862,17.769458 2.55873,0.58459 9.78114,0.363308 12.34395,-0.378271 7.8415,-2.269008 14.11123,-8.605941 16.17731,-16.350423 0.78768,-2.952477 0.96226,-8.425388 0.36948,-11.576555 -1.79292,-9.53115 -8.79727,-16.597685 -18.3751,-18.538405 -0.86353,-0.17499 -1.63097,-0.27972 -2.55902,-0.32763 z m -140.07517,0.077 c -4.40066,-0.002 -5.0942,0.0594 -6.86987,0.61702 -2.96531,0.93115 -4.97053,2.050634 -6.77271,3.781162 -2.96074,2.843048 -3.9258,5.459526 -3.78116,10.251571 0.0861,2.851967 0.15899,3.218795 0.95498,4.835364 1.15204,2.339738 3.83225,4.880572 6.46472,6.127791 1.06368,0.50395 3.48206,1.46916 5.37383,2.145089 1.89177,0.675929 4.12285,1.47745 4.95835,1.78077 3.98788,1.447848 5.44484,3.466302 4.27726,5.92677 -0.86048,1.813348 -3.87026,2.501384 -6.13916,1.403015 -0.93536,-0.4528 -1.29872,-0.83965 -1.80092,-1.918229 -0.346,-0.743079 -0.62849,-1.5597 -0.63149,-1.81436 -0.002,-0.429019 -0.50755,-0.463021 -6.88175,-0.463021 h -6.87917 v 0.619084 c 0,1.067189 0.99476,4.565244 1.67897,5.904032 1.92276,3.762217 6.20482,6.713619 11.41791,7.869288 1.38075,0.306179 2.99675,0.389078 6.35,0.326078 4.01209,-0.07538 4.72872,-0.160102 6.63525,-0.783932 7.05863,-2.309707 11.0473,-8.330418 10.17148,-15.352551 -0.32636,-2.616567 -1.47562,-4.77859 -3.59462,-6.760828 -2.06691,-1.933488 -4.29528,-3.100235 -9.90482,-5.186763 -3.93302,-1.462909 -6.53909,-2.642516 -7.42849,-3.362586 -1.24787,-1.010258 -1.74201,-3.1233 -1.03818,-4.438488 0.4454,-0.832219 1.85543,-1.586467 2.97088,-1.586467 2.25073,-0.0023 4.03945,1.354277 4.35581,3.303675 l 0.15089,0.928625 h 6.97684 6.97683 v -0.870231 c 0,-1.279729 -0.70859,-3.818611 -1.52962,-5.479769 -1.05452,-2.133658 -3.7359,-4.697457 -6.14329,-5.874059 -3.41344,-1.66834 -4.78894,-1.92505 -10.31875,-1.92805 z m 88.58374,0.18242 c -3.06894,-0.0828 -7.19097,0.16539 -8.81187,0.61495 -7.46433,2.070231 -12.8547,7.1949 -15.1598,14.413072 -0.96106,3.009497 -1.21154,4.801313 -1.20354,8.598959 0.0159,7.258812 1.95183,12.513151 6.26628,17.006197 3.43024,3.572236 7.07597,5.344529 13.40435,6.516398 1.65425,0.30633 8.12593,-0.08441 10.18646,-0.61495 3.51764,-0.905669 6.65044,-2.622917 9.21701,-5.052404 3.16899,-2.999677 4.82945,-5.723651 6.08697,-9.983887 l 0.41031,-1.389063 h -6.96237 -6.96185 l -0.73122,1.104843 c -1.03949,1.570768 -2.16322,2.554151 -3.83697,3.356901 -1.28746,0.617419 -1.77547,0.697631 -4.23334,0.697631 -2.6631,0 -2.84754,-0.03752 -4.45399,-0.908471 -3.46672,-1.879548 -5.33559,-5.607523 -5.33559,-10.643278 0,-5.517355 1.91925,-9.234019 5.73919,-11.114567 1.56151,-0.7687 1.97902,-0.857111 4.02094,-0.851111 3.69417,0.01053 6.51595,1.477528 8.12612,4.225065 l 0.68471,1.168404 h 6.96133 6.96134 l -0.38861,-1.521354 c -0.57409,-2.249828 -2.51727,-6.055944 -4.04937,-7.930782 -3.27254,-4.004616 -7.93285,-6.620743 -13.35009,-7.494633 -0.65724,-0.10603 -1.56342,-0.17032 -2.5864,-0.19792 z m -196.26916,0.1664 v 23.43836 23.437846 h 6.48229 6.48229 v -8.74882 -8.74882 l 0.72761,0.08372 c 0.66296,0.07628 1.13911,0.847472 5.36246,8.682674 l 4.63486,8.598958 7.20525,0.0708 c 3.96279,0.0387 7.20524,0.02007 7.20524,-0.04083 0,-0.06094 -2.32571,-4.130477 -5.16816,-9.043892 -2.84247,-4.913415 -5.07489,-9.014872 -4.96094,-9.114172 0.11393,-0.09933 0.74301,-0.385971 1.39785,-0.637171 4.06726,-1.560188 7.34257,-5.405439 8.22482,-9.655224 0.45937,-2.212788 0.1796,-6.693032 -0.53382,-8.5509 -1.74738,-4.550645 -5.24662,-7.534887 -10.54664,-8.993249 -1.90961,-0.52546 -2.81645,-0.56791 -14.27613,-0.67025 z m -42.33333,0.045 v 5.159371 5.159375 h 6.08541 6.08542 v 18.25625 18.25625 h 6.48229 6.48229 v -18.25625 -18.25625 h 6.21771 6.21771 v -5.159375 -5.159371 h -18.78542 z m 86.23143,0 0.0811,16.205725 c 0.0811,16.169444 0.0829,16.209884 0.69918,18.057812 2.23941,6.714794 6.90811,10.976356 13.62656,12.437484 0.89273,0.19415 3.24481,0.362538 5.22707,0.374137 2.99468,0.01749 4.03387,-0.08823 6.14485,-0.623734 3.05926,-0.776029 6.11872,-2.324249 8.16591,-4.132048 1.77204,-1.564818 3.89456,-4.621793 4.69583,-6.763411 1.28496,-3.434447 1.33429,-4.184667 1.33429,-20.359481 V -102.187 h -6.3376 -6.3376 l -0.0858,14.750517 c -0.0943,16.267573 -0.0693,16.017585 -1.79834,18.115173 -1.279,1.551678 -2.89805,2.187162 -5.54902,2.178162 -1.9284,-0.0066 -2.44891,-0.111803 -3.65094,-0.735873 -1.6385,-0.850689 -2.77932,-2.430296 -3.2122,-4.448824 -0.17854,-0.832409 -0.28061,-6.513567 -0.28061,-15.584578 V -102.187 h -6.36136 z m 86.01232,0 v 5.159371 5.159375 h 6.08541 6.08542 v 18.25625 18.25625 h 6.48229 6.48229 v -18.25625 -18.25625 h 6.21771 6.21771 v -5.159375 -5.159371 h -18.78542 z m -234.95,1.05833 v 15.213541 15.213541 h 1.85208 1.85208 v -2.001945 -2.001945 l 1.27486,1.308964 c 1.32963,1.365099 2.36544,2.015293 4.1491,2.604493 0.65175,0.215289 1.97317,0.320685 3.43959,0.273885 3.49236,-0.11134 5.83031,-1.275694 7.98556,-3.976502 2.42312,-3.036547 3.01412,-8.442742 1.39268,-12.743408 -0.8187,-2.171508 -3.46271,-4.842584 -5.57176,-5.629114 -4.31815,-1.610358 -8.72216,-0.689475 -11.50576,2.406572 l -1.16427,1.295528 v -5.981547 -5.982063 h -1.85208 z m 25.15402,7.937499 0.54002,1.256771 c 1.80499,4.200176 8.43814,20.720638 8.43514,21.013188 -0.001,0.193749 -0.95351,2.663319 -2.11667,5.488037 -1.16318,2.824747 -2.1146,5.181189 -2.1146,5.236889 0,0.0558 0.85679,0.06657 1.90376,0.02377 l 1.90325,-0.07803 6.69571,-16.36851 c 3.68244,-9.002951 6.6952,-16.420098 6.6952,-16.482198 0,-0.0621 -0.84837,-0.07794 -1.88515,-0.03514 l -1.88516,0.07751 -3.3631,8.813932 c -1.84986,4.847635 -3.45232,8.836242 -3.56051,8.863542 -0.10816,0.0273 -1.7524,-3.968753 -3.65404,-8.880078 l -3.45767,-8.929688 h -2.06809 z m 92.85014,1.8526 3.77032,0.001 c 4.15479,0.0016 5.35209,0.223542 6.52105,1.207161 2.44506,2.057368 1.93198,6.803505 -0.87334,8.077543 -0.90735,0.41212 -1.76146,0.493161 -5.25084,0.498161 l -4.16719,0.0057 v -4.894791 z m 231.49957,0.382406 c 2.65467,-0.15286 5.41353,0.539744 7.48688,2.122868 4.99348,3.812796 5.51695,13.851729 0.97927,18.774564 -0.64375,0.69837 -1.84842,1.570654 -2.85151,2.064474 -1.55788,0.766949 -2.01132,0.862241 -4.39818,0.926041 -3.05133,0.08152 -4.84624,-0.372276 -6.8063,-1.720825 -5.3458,-3.677996 -6.03309,-14.05415 -1.27279,-19.218465 1.65727,-1.797923 4.20795,-2.795797 6.86263,-2.948657 z m -338.10081,0.476973 c 1.64332,-0.02913 3.31509,0.480374 4.75785,1.590084 2.23517,1.719208 3.39451,5.13205 2.86339,8.429976 -0.45686,2.836908 -1.81161,4.838777 -4.04368,5.975346 -1.69368,0.862439 -4.49686,1.069432 -6.16345,0.454753 -1.60282,-0.591159 -3.38176,-2.280436 -4.23798,-4.024044 -0.65761,-1.339159 -0.74188,-1.799286 -0.73588,-4.025594 0.006,-2.242448 0.0899,-2.679614 0.77928,-4.052983 1.38277,-2.754741 4.0416,-4.298992 6.78047,-4.347538 z" />
      <path
         id="path302"
         style="fill:#31429b;fill-opacity:1;stroke-width:0.264583"
         d="m 146.77709,-283.3734 c -11.35143,-0.0754 -11.96076,-0.0544 -13.62604,0.46302 -3.07657,0.95586 -4.98449,2.80605 -6.17275,5.98568 -0.55335,1.48069 -0.59105,2.05512 -0.67645,10.30997 -0.0755,7.29014 -0.0204,9.04374 0.33073,10.55801 0.95763,4.1292 3.19599,6.46087 7.15667,7.45536 0.97803,0.24552 4.35796,0.31925 12.96458,0.28215 11.48238,-0.0495 11.6622,-0.0583 13.1501,-0.65939 1.86854,-0.7549 3.86068,-2.51105 4.65657,-4.10466 1.16269,-2.32806 1.36632,-4.22748 1.36632,-12.74858 0,-8.72793 -0.20516,-10.50551 -1.48363,-12.85451 -0.90995,-1.67187 -2.38519,-3.01422 -4.29638,-3.91035 l -1.48673,-0.69764 z m 210.87291,0 c -11.35142,-0.0754 -11.96075,-0.0544 -13.62604,0.46302 -3.07656,0.95586 -4.98448,2.80605 -6.17275,5.98568 -0.55335,1.48069 -0.59104,2.05512 -0.67644,10.30997 -0.0755,7.29014 -0.0205,9.04374 0.33073,10.55801 0.95763,4.1292 3.19599,6.46087 7.15667,7.45536 0.97803,0.24552 4.35796,0.31925 12.96458,0.28215 11.48238,-0.0495 11.66218,-0.0583 13.1501,-0.65939 1.86854,-0.7549 3.86068,-2.51105 4.65656,-4.10466 1.16269,-2.32806 1.36633,-4.22748 1.36633,-12.74858 0,-8.72793 -0.20516,-10.50551 -1.48363,-12.85451 -0.90995,-1.67187 -2.38519,-3.01422 -4.29638,-3.91035 l -1.48673,-0.69764 z m -357.60762533,4.44469 v 77.65521 77.65521 H 19.637561 39.233264 l -0.10697,-20.17448 c -0.09991,-18.83543 -0.144523,-20.44669 -0.674377,-24.27552 -0.312129,-2.25557 -0.568425,-4.25312 -0.571025,-4.43901 -0.0026,-0.26159 0.844096,-0.32148 3.766178,-0.26458 l 3.769796,0.0734 13.371794,24.47396 13.371793,24.47395 21.783684,0.0677 21.783683,0.0677 -0.40463,-0.61805 c -0.22278,-0.34002 -7.09816,-11.62189 -15.27865,-25.07082 -8.180477,-13.44892 -15.543053,-25.39189 -16.361276,-26.53999 -1.772812,-2.48761 -5.776233,-6.78599 -7.05745,-7.57783 -0.5021,-0.31031 -0.912606,-0.70491 -0.912606,-0.87643 0,-0.17153 0.837408,-0.95012 1.860868,-1.73065 1.023487,-0.78052 2.991738,-2.6249 4.373894,-4.09845 2.169315,-2.31278 4.375616,-5.46558 16.133898,-23.05234 l 13.620872,-20.37292 -21.368202,-0.0682 c -11.752572,-0.0376 -21.487268,-0.0214 -21.632788,0.0362 -0.145521,0.0576 -5.384323,8.44702 -11.641667,18.64279 l -11.377083,18.53789 -3.902604,0.0124 c -3.019237,0.01 -3.902605,-0.0643 -3.902605,-0.32866 0,-0.18795 0.175806,-1.70599 0.390674,-3.37344 0.830842,-6.44757 0.927059,-11.07993 0.929659,-44.76988 l 0.0026,-34.0651 H 19.621541 Z m 188.64894533,0 v 65.55052 c 0.001,70.5353 -0.0578,67.30714 1.32292,72.2514 1.21155,4.33853 3.75323,8.55272 7.05849,11.70213 5.08933,4.84942 10.63802,7.21702 20.06027,8.5602 h 10e-4 c 1.76278,0.25131 13.44711,-0.0948 16.80104,-0.49764 6.72949,-0.80825 13.59293,-2.42799 16.48789,-3.89124 0.87866,-0.44413 0.99146,-0.60331 0.86454,-1.22369 -0.18428,-0.90083 -4.38784,-25.65976 -4.38784,-25.84442 0,-0.0751 -2.1729,-0.13849 -4.82865,-0.13849 -5.5073,-0.002 -7.62675,-0.27098 -9.79268,-1.24179 -1.86941,-0.83791 -3.10826,-2.16434 -3.93361,-4.21163 l -0.62735,-1.55598 -0.0713,-59.72968 -0.0713,-59.72969 h -19.44171 z m 74.08334,0 v 65.55052 c 0.001,70.5353 -0.0578,67.30714 1.32291,72.2514 1.21155,4.33853 3.75324,8.55272 7.05849,11.70213 5.08933,4.84942 10.63802,7.21702 20.06027,8.5602 h 10e-4 c 1.76278,0.25131 13.44711,-0.0948 16.80104,-0.49764 6.72949,-0.80825 13.59291,-2.42799 16.48788,-3.89124 0.87875,-0.44413 0.99147,-0.60331 0.86455,-1.22369 -0.18428,-0.90083 -4.38785,-25.65976 -4.38785,-25.84442 0,-0.0751 -2.17289,-0.13849 -4.82864,-0.13849 -5.5073,-0.002 -7.62676,-0.27098 -9.79269,-1.24179 -1.86942,-0.83791 -3.10827,-2.16434 -3.93361,-4.21163 l -0.62735,-1.55598 -0.0713,-59.72968 -0.0713,-59.72969 h -19.4417 z m -658.81405,2.38125 0.003,48.88177 c 0.002,30.10621 0.10497,50.35537 0.26923,52.71823 1.31069,18.85276 5.7921,31.25227 14.39499,39.82858 4.18132,4.1684 8.41949,6.9421 14.08028,9.21545 6.79355,2.72823 15.004,4.4377 24.83001,5.1692 h 0.001 c 4.2593,0.317 17.50711,0.33281 21.45812,0.0258 13.22189,-1.0273 23.0601,-3.88468 30.53147,-8.86768 9.83035,-6.55634 15.89049,-17.39286 18.49241,-33.06827 1.56677,-9.43913 1.61034,-11.2046 1.61334,-64.88906 l 0.003,-49.01406 h -20.22925 -20.22874 l -0.0977,50.20469 c -0.0878,45.30446 -0.1407,50.52751 -0.54416,53.51198 -1.40924,10.42383 -4.20288,15.6507 -9.75237,18.24694 -3.42972,1.60452 -5.76945,1.99368 -11.98635,1.99368 -6.21691,0 -8.55663,-0.38916 -11.98635,-1.99368 -5.54949,-2.59624 -8.34313,-7.82311 -9.75238,-18.24694 -0.40345,-2.98447 -0.45635,-8.20752 -0.54415,-53.51198 l -0.0971,-50.20469 h -20.22926 z m 321.24964,39.72987 c -5.162348,0.0144 -9.656891,0.21007 -13.009542,0.61289 -12.392168,1.4889 -20.516048,4.67821 -25.929168,10.17922 -3.31007,3.36383 -5.34738,7.41048 -6.53293,12.97802 -0.67315,3.16201 -0.67597,14.04021 -0.005,17.72708 2.13627,11.73258 8.26115,18.52037 21.15116,23.4394 1.330429,0.50771 7.90329,2.4761 14.606343,4.37441 16.228388,4.59585 24.568843,7.02387 26.377718,7.6786 2.155453,0.78018 3.305865,1.81882 3.613733,3.26233 0.508397,2.38371 -0.315115,4.36233 -2.15439,5.17591 -3.384256,1.49705 -6.25918,1.62856 -34.898128,1.59526 -24.083606,-0.028 -25.334606,-0.006 -25.341606,0.43976 -0.004,0.25797 -0.52458,5.70746 -1.15704,12.11037 -0.63242,6.40292 -1.07575,11.7184 -0.98495,11.8122 0.22532,0.23276 10.43838,1.67637 16.43724,2.32338 6.11301,0.65933 14.0701,1.28881 20.108335,1.5906 6.112372,0.30548 27.428934,0.14651 30.95625,-0.231 12.735256,-1.363 20.28931,-3.85552 25.951387,-8.56227 4.707753,-3.91347 7.771149,-10.33682 8.833053,-18.52186 0.467544,-3.60373 0.530851,-10.42738 0.127124,-13.68547 -1.534265,-12.3817 -7.922041,-19.71553 -21.550106,-24.74113 -1.455207,-0.53664 -10.444436,-3.1052 -19.976042,-5.70766 -20.294817,-5.54121 -22.085983,-6.08809 -23.35413,-7.13341 -1.09638,-0.90372 -1.60153,-2.62107 -1.278475,-4.34754 0.298556,-1.59567 0.695379,-2.14145 1.909445,-2.62723 2.258559,-0.90371 6.46925,-1.01748 32.57889,-0.8785 13.933606,0.0742 25.33437,0.11967 25.33437,0.10077 5.03e-4,-0.0189 0.535515,-5.50271 1.188558,-12.18582 0.653071,-6.68312 1.157065,-12.18116 1.120345,-12.21786 -0.0367,-0.0367 -1.136739,-0.25119 -2.444812,-0.47697 -14.695095,-2.53643 -36.190939,-4.12662 -51.677982,-4.08348 z m 552.19058,0.0176 c -2.87231,0.0521 -5.74954,0.25483 -7.59075,0.58912 -11.61003,2.10794 -23.22844,7.78406 -34.13125,16.67391 -1.22734,1.00076 -2.15155,1.5868 -2.19935,1.39527 -0.0454,-0.18166 -0.76533,-3.72351 -1.5999,-7.87084 l -1.51722,-7.54063 -15.66416,-0.0682 -15.66416,-0.0682 v 55.03488 55.03592 h 19.57813 19.57814 l 0.0672,-36.66908 0.0672,-36.66908 1.5875,-0.65526 c 3.45592,-1.42629 10.2281,-3.53455 13.36249,-4.15995 7.97709,-1.59165 13.23549,-1.05877 15.21922,1.54202 1.67009,2.18969 1.57262,-0.17375 1.65262,40.0327 l 0.0729,36.57865 h 19.57297 19.57296 v -43.06766 c 0,-27.94755 -0.0958,-43.85501 -0.27285,-45.30989 -1.72074,-14.14334 -9.84476,-22.38801 -24.13134,-24.48946 -1.82083,-0.26783 -4.68795,-0.36633 -7.56027,-0.3142 z m 104.066,0.061 c -6.43996,-0.0284 -12.90283,0.0845 -15.613,0.35502 -23.92986,2.38824 -34.61051,9.49604 -37.71656,25.09976 -0.79981,4.01785 -1.00266,12.1921 -0.41341,16.65531 1.3774,10.43311 5.76867,17.13766 14.16193,21.62246 l 2.19831,1.1746 -1.55081,1.0542 c -3.80491,2.58694 -6.77584,7.08602 -8.19485,12.4101 -0.67254,2.52385 -0.67446,8.76563 -0.004,11.20138 0.66345,2.4088 2.26357,5.70228 3.5636,7.33444 0.60513,0.75969 1.09968,1.47408 1.09968,1.5875 -3.4e-4,0.11342 -0.68496,0.56302 -1.52136,0.9989 -2.68789,1.40073 -6.03353,3.73579 -7.97264,5.56504 -3.43745,3.24272 -5.43606,7.0045 -6.27455,11.80909 -0.52785,3.0244 -0.36841,11.36551 0.27699,14.50196 3.09654,15.0479 14.48973,21.109681 42.74416,22.742799 6.49053,0.37515 30.79928,0.137373 35.98333,-0.351917 15.11691,-1.426818 24.00802,-4.328497 30.12684,-9.832991 4.06985,-3.661246 6.8246,-9.219341 8.12199,-16.387111 0.59245,-3.27308 0.80926,-12.22348 0.38912,-16.06207 -1.4342,-13.10372 -7.55432,-21.07896 -19.1456,-24.94938 -5.18204,-1.73032 -7.94624,-2.10335 -31.32367,-4.22869 -13.98651,-1.27155 -22.48165,-2.15148 -23.28902,-2.41225 -1.90248,-0.61442 -3.60323,-1.97058 -4.33358,-3.4556 -0.82335,-1.67407 -0.86249,-4.4712 -0.0847,-6.04201 0.60904,-1.23005 0.007,-1.17031 6.80424,-0.67231 5.31132,0.38912 21.6798,0.24255 26.38443,-0.23616 18.84966,-1.91804 28.80329,-6.72036 33.78812,-16.30185 2.58691,-4.97235 3.56841,-9.84014 3.59771,-17.84697 0.0205,-5.60511 -0.23839,-8.26566 -1.17925,-12.12433 -0.29536,-1.2113 -0.49585,-2.24352 -0.44545,-2.29392 0.0504,-0.0504 2.7847,-0.48469 6.07611,-0.96531 l 5.98465,-0.87385 0.84336,-7.01869 c 0.46397,-3.8602 0.91114,-7.46517 0.99374,-8.01088 l 0.15037,-0.99219 H 628.311 610.92912 l -2.5616,-0.64544 c -3.32864,-0.83884 -6.37391,-1.34959 -11.42515,-1.91668 -2.61849,-0.29398 -9.03558,-0.46356 -15.47554,-0.49196 z m -755.70219,0.46664 c -8.31228,0.19123 -15.94393,2.13803 -23.76289,6.03064 -5.2964,2.63677 -8.44171,4.85683 -12.22716,8.63151 -2.21186,2.20558 -2.99914,2.84636 -3.09594,2.51923 -0.0714,-0.2413 -0.73078,-3.35577 -1.46502,-6.92102 -0.73422,-3.56526 -1.39688,-6.75019 -1.47278,-7.07761 l -0.13798,-0.59531 h -15.73754 -15.73754 v 75.53854 h -0.002 v 75.538542 h 19.57917 19.57916 v -18.190102 c -0.001,-16.19477 -0.18483,-23.93049 -0.67282,-28.2944 l -0.15348,-1.37356 2.18694,1.464 c 5.98829,4.00819 13.1862,6.54116 22.18883,7.8083 3.99888,0.56287 16.31718,0.4796 19.96829,-0.13487 11.55246,-1.94421 18.93728,-7.08798 23.80113,-16.57728 4.44707,-8.67614 6.40853,-19.30939 6.68642,-36.24792 0.15558,-9.48325 -0.0996,-15.1761 -0.99478,-22.19038 -2.36103,-18.5002 -9.1743,-30.9214 -19.93108,-36.33525 -4.71916,-2.37512 -8.7954,-3.34546 -14.99288,-3.56826 -1.21778,-0.0438 -2.41903,-0.0521 -3.6065,-0.0248 z m 301.01315,2.58744 v 55.03333 55.03334 h 19.44688 19.44687 v -55.03334 -55.03333 h -19.44687 z m 210.87292,0 v 55.03333 55.03334 h 19.44687 19.44688 v -55.03334 -55.03333 h -19.44688 z m 242.84357,20.47265 c 3.40928,-0.005 6.80277,0.15969 8.31939,0.49506 5.3377,1.18033 7.32033,3.31256 7.93078,8.5292 0.35163,3.00491 -0.0141,6.57792 -0.87953,8.58965 -1.33998,3.11486 -4.51563,4.74101 -10.3172,5.28444 v 5.1e-4 c -5.00792,0.46909 -11.02464,0.21117 -14.2291,-0.60978 -3.50705,-0.89846 -5.89405,-2.8328 -6.83938,-5.5423 -0.71947,-2.06199 -0.68769,-8.73882 0.0512,-10.73216 1.10214,-2.9735 3.32113,-4.58929 7.54889,-5.49734 1.58057,-0.33949 5.00571,-0.51276 8.41499,-0.51728 z m -769.57421,6.85591 c 5.68137,-0.0799 9.25318,1.80717 11.16417,5.84668 2.12104,4.4835 2.90447,10.78809 2.89647,23.3133 -0.006,9.83505 -0.32455,13.99089 -1.4273,18.63401 -1.48275,6.24316 -4.49298,9.27615 -9.99681,10.07225 -2.08166,0.30107 -5.73219,0.28824 -8.51214,-0.03 -3.15849,-0.36156 -5.67352,-0.93916 -9.85573,-2.26395 l -3.90261,-1.23661 v -23.74067 -23.74067 l 2.49959,-1.4919 c 5.42861,-3.23936 9.49852,-4.69388 14.56914,-5.20795 0.89905,-0.0911 1.75359,-0.1431 2.56522,-0.15452 z m 754.52914,76.65321 c 1.1211,6.1e-4 23.6892,1.9866 27.25983,2.39882 7.73739,0.89328 10.64626,2.4154 11.38122,5.9557 0.36052,1.73657 0.19166,3.89351 -0.41961,5.35678 -1.28728,3.08168 -4.93565,4.51443 -12.54911,4.92787 -4.94047,0.26832 -11.32505,0.32308 -16.27187,0.14004 -7.89927,-0.29228 -11.5307,-1.21192 -13.39815,-3.39359 -1.53779,-1.7966 -2.17495,-5.17636 -1.5627,-8.28838 0.45312,-2.30312 1.12757,-3.5243 3.00757,-5.44412 1.38139,-1.41064 1.75635,-1.65312 2.55282,-1.65312 z"
         sodipodi:nodetypes="cssssssssssccccsssssssssscccccccccscsccccccsssssscccssccssscccccssccsssscsccccccccssccsssscscccccccccssccsssccccccssssccccssscsscsscsccssssssssssssscssssssssccccccccccsssscccssssssssscccsscsssssssssssssssssssssccccccsssssssssccccccccccccssssssssccccccccccccccccccssssccssssssssssscccccsscssssssssc" />
    </g>
    <g
       id="g2975"
       transform="matrix(1.4646791,0,0,1.4646791,-31.529533,-27.723604)">
      <path
         id="path1230"
         style="fill:#bdbec0;fill-opacity:1;stroke-width:3.66312;stroke-linecap:round;stroke-linejoin:round"
         d="m 81.15056,85.750295 c -0.121983,-0.0063 -0.26508,-0.0052 -0.462963,0.0018 -0.578821,0.02025 -0.855244,0.08422 -1.307786,0.302528 -1.292222,0.623386 -1.946382,2.050781 -1.631573,3.560242 0.237531,1.138915 1.171855,2.064942 2.356515,2.335594 0.336316,0.07684 1.285619,0.04775 1.622471,-0.04972 1.030677,-0.298235 1.854762,-1.131154 2.126324,-2.149078 0.103527,-0.38807 0.126479,-1.107421 0.04856,-1.521607 -0.235659,-1.252762 -1.156302,-2.181578 -2.415199,-2.436662 -0.113497,-0.023 -0.214373,-0.03677 -0.336354,-0.04306 z m -18.411292,0.01017 c -0.578417,-2.64e-4 -0.669575,0.0078 -0.902966,0.0811 -0.389757,0.122389 -0.653321,0.269533 -0.890197,0.496992 -0.389155,0.373685 -0.516002,0.717592 -0.49699,1.347452 0.01135,0.374859 0.0209,0.423074 0.125521,0.635554 0.151423,0.307531 0.503706,0.641495 0.849715,0.805429 0.139808,0.06624 0.457677,0.193104 0.706328,0.281946 0.248652,0.08884 0.541903,0.194195 0.651719,0.234063 0.524162,0.190303 0.715663,0.455606 0.562198,0.779006 -0.113095,0.238345 -0.508703,0.328779 -0.806924,0.184411 -0.122942,-0.05952 -0.170702,-0.110363 -0.23671,-0.252129 -0.04548,-0.09767 -0.08261,-0.205005 -0.08301,-0.238477 -2.62e-4,-0.05639 -0.06671,-0.06086 -0.904527,-0.06086 h -0.904183 v 0.08138 c 0,0.14027 0.13075,0.600049 0.220682,0.776018 0.252724,0.494501 0.815552,0.882429 1.500754,1.034328 0.181484,0.04024 0.393889,0.05114 0.834636,0.04286 0.527344,-0.0099 0.621536,-0.02104 0.872128,-0.103043 0.927777,-0.303585 1.452042,-1.094938 1.336926,-2.017918 -0.04289,-0.343918 -0.193953,-0.628092 -0.472472,-0.888634 -0.271672,-0.254135 -0.564566,-0.407491 -1.301876,-0.681741 -0.516952,-0.192284 -0.859489,-0.347329 -0.976391,-0.441975 -0.164019,-0.132786 -0.228967,-0.410522 -0.136457,-0.583389 0.05854,-0.109381 0.243875,-0.208522 0.390488,-0.208522 0.295833,-3.03e-4 0.53094,0.178004 0.572522,0.43423 l 0.01983,0.122057 h 0.917026 0.917026 v -0.114384 c 0,-0.168206 -0.09313,-0.501913 -0.201052,-0.720254 -0.138604,-0.280444 -0.491041,-0.617427 -0.807465,-0.772078 -0.448659,-0.219284 -0.629452,-0.253026 -1.356283,-0.25342 z m 11.643328,0.02397 c -0.403378,-0.01088 -0.945172,0.02174 -1.158221,0.08083 -0.981102,0.272109 -1.689605,0.945689 -1.992583,1.894436 -0.12632,0.395564 -0.159244,0.631077 -0.158192,1.130235 0.0021,0.954089 0.256546,1.644712 0.823632,2.235271 0.450865,0.469531 0.930055,0.702478 1.761848,0.856507 0.217434,0.04027 1.068063,-0.01112 1.338895,-0.08083 0.462355,-0.119039 0.874126,-0.344752 1.211471,-0.664081 0.416529,-0.394274 0.634777,-0.752309 0.800064,-1.312269 l 0.05393,-0.182576 h -0.915127 -0.915056 l -0.09611,0.145219 c -0.136629,0.20646 -0.284331,0.335714 -0.504325,0.441227 -0.169223,0.08115 -0.233366,0.09169 -0.556425,0.09169 -0.350034,0 -0.374277,-0.005 -0.585427,-0.119407 -0.455656,-0.247086 -0.701298,-0.737085 -0.701298,-1.398979 0,-0.725193 0.252264,-1.213706 0.754352,-1.460882 0.205243,-0.101044 0.260119,-0.112658 0.528507,-0.111865 0.485557,0.0014 0.856448,0.194204 1.068086,0.555337 l 0.09,0.153574 h 0.914989 0.914989 l -0.05108,-0.199966 c -0.07546,-0.295714 -0.330866,-0.795984 -0.532243,-1.042411 -0.430138,-0.526361 -1.042683,-0.870222 -1.754719,-0.985084 -0.08639,-0.01393 -0.205493,-0.02239 -0.339952,-0.02602 z m -25.797356,0.02187 v 3.080707 3.080638 h 0.852024 0.852024 v -1.149933 -1.149932 l 0.09564,0.011 c 0.08714,0.01005 0.149723,0.111392 0.704835,1.14124 l 0.609199,1.130236 0.947048,0.0093 c 0.520864,0.0051 0.947048,0.0026 0.947048,-0.0053 0,-0.008 -0.305688,-0.542904 -0.679297,-1.188717 -0.37361,-0.645812 -0.667037,-1.184902 -0.652059,-1.197954 0.01497,-0.01306 0.09766,-0.05074 0.183731,-0.08375 0.534595,-0.205069 0.965098,-0.710484 1.081059,-1.26907 0.06039,-0.290846 0.02361,-0.879722 -0.07016,-1.123919 -0.229672,-0.59813 -0.689608,-0.990375 -1.386235,-1.18206 -0.250997,-0.06907 -0.370191,-0.07465 -1.876436,-0.08809 z m -5.564236,0.0059 v 0.678142 0.678141 h 0.799859 0.799859 v 2.399577 2.399577 h 0.852023 0.852024 v -2.399616 -2.399577 h 0.817247 0.817249 v -0.678141 -0.678142 h -2.469132 z m 11.334144,0 0.01064,2.130059 c 0.01064,2.125291 0.01088,2.130605 0.0919,2.373495 0.294344,0.882583 0.907992,1.442717 1.791056,1.634766 0.11734,0.02552 0.426494,0.04765 0.68704,0.04917 0.393616,0.0022 0.530206,-0.01159 0.80767,-0.08198 0.402105,-0.102002 0.804238,-0.305497 1.073317,-0.543112 0.232914,-0.205677 0.511896,-0.607482 0.617214,-0.888973 0.168894,-0.451419 0.175377,-0.550027 0.175377,-2.676023 V 85.812162 H 58.77636 57.943353 l -0.01123,1.938789 c -0.01239,2.138187 -0.0091,2.10533 -0.23637,2.381034 -0.168106,0.20395 -0.380912,0.287478 -0.729352,0.286294 -0.253466,-8.67e-4 -0.321881,-0.0147 -0.479874,-0.09672 -0.215362,-0.111818 -0.36531,-0.319435 -0.422208,-0.584748 -0.02346,-0.109417 -0.03689,-0.856134 -0.03689,-2.048416 v -1.876238 h -0.836163 z m 11.305344,0 v 0.678142 0.678141 h 0.799859 0.799858 v 2.399577 2.399577 h 0.852024 0.852024 v -2.399616 -2.399577 h 0.817247 0.817247 v -0.678141 -0.678142 h -2.46913 z M 34.77898,85.951311 v 1.999648 1.999647 h 0.243435 0.243434 v -0.263172 -0.263133 l 0.167567,0.172049 c 0.174764,0.179427 0.310909,0.264887 0.545351,0.34233 0.08567,0.0283 0.259351,0.04215 0.452095,0.036 0.459031,-0.01463 0.766329,-0.167675 1.049612,-0.522666 0.318491,-0.399119 0.396171,-1.109702 0.183052,-1.674976 -0.107607,-0.28542 -0.455134,-0.636502 -0.732345,-0.739883 -0.567572,-0.211663 -1.146429,-0.09063 -1.512302,0.316316 l -0.15303,0.170283 v -0.786195 -0.786275 h -0.243434 z m 3.30621,1.043294 0.07098,0.165189 c 0.237246,0.552065 1.109098,2.723493 1.108703,2.761945 -1.31e-4,0.02546 -0.125328,0.350063 -0.278212,0.721341 -0.152886,0.37128 -0.27794,0.681008 -0.27794,0.688329 0,0.0073 0.11261,0.0088 0.250228,0.0031 l 0.250161,-0.01029 0.880075,-2.151455 c 0.484014,-1.183335 0.880008,-2.158236 0.880008,-2.166397 0,-0.0082 -0.11151,-0.01029 -0.247782,-0.0046 l -0.247783,0.01017 -0.442041,1.158491 c -0.243143,0.637167 -0.453768,1.161424 -0.467989,1.165012 -0.01422,0.0035 -0.230332,-0.521647 -0.480282,-1.167186 l -0.454471,-1.173705 h -0.271827 z m 12.204098,0.243504 0.495565,1.31e-4 c 0.5461,2.1e-4 0.703472,0.02938 0.857118,0.158668 0.321376,0.270418 0.253937,0.894243 -0.114786,1.061701 -0.119261,0.05416 -0.231523,0.06482 -0.690163,0.06548 l -0.547729,7.06e-4 V 87.88143 Z m 30.427992,0.05026 c 0.348927,-0.02009 0.711547,0.07095 0.984066,0.279027 0.656336,0.501149 0.72514,1.820653 0.128713,2.467704 -0.08462,0.0918 -0.242953,0.206444 -0.374798,0.271352 -0.204766,0.100807 -0.264365,0.113331 -0.578091,0.121717 -0.401063,0.01076 -0.636983,-0.04894 -0.894611,-0.226182 -0.702644,-0.483432 -0.792981,-1.84726 -0.167293,-2.52605 0.217829,-0.236317 0.553086,-0.367476 0.902014,-0.387568 z m -44.439516,0.06269 c 0.215996,-0.0038 0.435731,0.06314 0.625365,0.208998 0.293787,0.225971 0.44617,0.67455 0.376361,1.108026 -0.06005,0.372879 -0.238116,0.636002 -0.531497,0.78539 -0.222614,0.113355 -0.591061,0.140565 -0.810115,0.05977 -0.210673,-0.0777 -0.444494,-0.299737 -0.557035,-0.528915 -0.08644,-0.176016 -0.09751,-0.236495 -0.09673,-0.529119 7.89e-4,-0.294744 0.01183,-0.352204 0.102427,-0.532718 0.18175,-0.362079 0.531223,-0.565054 0.891217,-0.571434 z" />
      <path
         id="path1254"
         style="opacity:1;fill:#f99d1b;fill-opacity:1;stroke-width:5.59715;stroke-linecap:round;stroke-linejoin:round"
         d="m 63.454182,38.345652 c -0.794219,0.0032 -0.920773,0.01699 -1.343798,0.146441 -0.90109,0.27556 -1.604102,0.704386 -2.248798,1.371717 -0.6257,0.647672 -1.028004,1.36469 -1.28267,2.286056 -0.07272,0.263054 -0.09234,0.534561 -0.08957,1.24012 0.0032,0.823617 0.01608,0.94459 0.146441,1.370365 0.562148,1.836658 1.974143,3.135056 3.861916,3.551294 0.594263,0.131027 1.640575,0.106036 2.246828,-0.05356 1.150798,-0.302948 2.263642,-1.077011 2.904194,-2.020266 1.981296,-2.917588 0.53184,-6.843996 -2.869634,-7.773442 -0.387252,-0.10582 -0.567234,-0.121902 -1.324912,-0.11874 z" />
      <path
         id="path2565"
         style="fill:#ed2227;fill-opacity:1;stroke-width:5.70096;stroke-linecap:round;stroke-linejoin:round"
         d="m 24.123407,52.013314 v 4.546338 4.546335 l 6.941281,0.0024 6.941281,0.0024 -1.160158,1.140283 c -1.453343,1.428477 -2.805702,2.674228 -4.715256,4.343588 -0.820302,0.717116 -2.135496,1.866456 -2.922645,2.554036 -1.85282,1.618442 -3.262324,2.916687 -4.676678,4.30775 l -1.138486,1.119881 3.310385,3.313557 3.310387,3.313557 1.373583,-1.321364 c 2.123986,-2.043138 2.62473,-2.493877 7.243716,-6.520347 1.72679,-1.505279 3.063219,-2.729238 4.729528,-4.33164 l 1.248636,-1.200751 0.0138,6.894663 0.0138,6.894769 h 4.546125 4.546124 V 66.815981 52.013329 H 38.92617 Z" />
      <path
         d="m 59.209342,51.391472 6.11e-4,9.900848 c 4.05e-4,6.097916 0.02127,10.199318 0.05452,10.677908 0.265477,3.818567 1.173173,6.330048 2.915661,8.067152 0.846913,0.844296 1.705338,1.4061 2.851914,1.866558 1.376011,0.552595 3.039011,0.898842 5.029239,1.047005 h 2.02e-4 c 0.862708,0.06421 3.546009,0.06741 4.346275,0.0052 2.678051,-0.208075 4.67075,-0.786827 6.184049,-1.79612 1.991109,-1.327965 3.218569,-3.522865 3.745577,-6.697872 0.317348,-1.911865 0.32617,-2.269455 0.326778,-13.14307 l 6.1e-4,-9.927641 H 80.5674 76.470134 l -0.01978,10.168846 c -0.01784,9.176276 -0.02851,10.234188 -0.110218,10.838681 -0.285436,2.111313 -0.851281,3.17 -1.975311,3.69586 -0.694678,0.32499 -1.168586,0.403816 -2.427797,0.403816 -1.259216,0 -1.733117,-0.07882 -2.427796,-0.403816 -1.124033,-0.52586 -1.689876,-1.584547 -1.975314,-3.69586 -0.0817,-0.604493 -0.09244,-1.662405 -0.110219,-10.838681 l -0.01966,-10.168769 h -4.097373 z m 44.925748,8.157668 c -1.68364,0.03872 -3.22942,0.433049 -4.813144,1.221485 -1.07277,0.534069 -1.70984,0.983733 -2.476574,1.748285 -0.448007,0.446733 -0.607465,0.576521 -0.627073,0.510261 C 96.203909,62.980281 96.07028,62.34947 95.921568,61.62734 95.772852,60.90521 95.63863,60.26011 95.62326,60.193794 L 95.59525,60.07322 h -3.187587 -3.187587 v 15.300139 h -4.04e-4 v 15.300086 h 3.965699 3.965695 v -3.684349 c -2e-4,-3.280198 -0.0375,-4.847045 -0.136281,-5.73094 l -0.03108,-0.278211 0.442961,0.296532 c 1.2129,0.811846 2.670824,1.324888 4.494304,1.581544 0.80997,0.114011 3.30501,0.09713 4.04454,-0.02732 2.33992,-0.393796 3.83569,-1.435647 4.82087,-3.357675 0.90074,-1.757325 1.29804,-3.911055 1.35432,-7.341901 0.0316,-1.920801 -0.0202,-3.07387 -0.20149,-4.49459 -0.47822,-3.747158 -1.85824,-6.263031 -4.037,-7.359592 -0.95587,-0.48107 -1.7815,-0.67761 -3.03678,-0.722737 -0.24665,-0.0089 -0.48996,-0.01054 -0.73048,-0.005 z m -3.00674,6.059414 c 1.15076,-0.01622 1.87421,0.366037 2.26127,1.184227 0.42962,0.908119 0.5883,2.185093 0.58668,4.722035 -9.3e-4,1.992058 -0.0657,2.833809 -0.28909,3.774258 -0.30032,1.264534 -0.91004,1.878854 -2.02483,2.040102 -0.42164,0.06099 -1.16105,0.05838 -1.724137,-0.006 -0.639747,-0.07324 -1.149147,-0.190225 -1.996257,-0.458555 l -0.79046,-0.250416 v -4.808598 -4.808595 l 0.50629,-0.30218 c 1.09954,-0.656124 1.923897,-0.950729 2.950934,-1.054855 0.18213,-0.01844 0.3552,-0.029 0.5196,-0.03129 z"
         style="fill:#31429b;fill-opacity:1;stroke-width:0.0535906"
         id="path2848" />
    </g>
  </g>
</svg>
