<?xml version="1.0" encoding="UTF-8" standalone="no"?>
<!-- Created with Inkscape (http://www.inkscape.org/) -->

<svg

   width="27.587622mm"
   height="29.606506mm"
   viewBox="0 0 27.587621 29.606506"
   version="1.1"
   id="svg326"
   inkscape:version="1.2.2 (732a01da63, 2022-12-09)"
   sodipodi:docname="lost-traveller.svg"
   xmlns:inkscape="http://www.inkscape.org/namespaces/inkscape"
   xmlns:sodipodi="http://sodipodi.sourceforge.net/DTD/sodipodi-0.dtd"
   xmlns="http://www.w3.org/2000/svg"
   xmlns:svg="http://www.w3.org/2000/svg">
   <style>
     <!-- circle { fill: white; } -->
     path { stroke: white; fill: white;}
 </style>
  <sodipodi:namedview
     id="namedview328"
     pagecolor="#ffffff"
     bordercolor="#000000"
     borderopacity="0.25"
     inkscape:showpageshadow="2"
     inkscape:pageopacity="0.0"
     inkscape:pagecheckerboard="0"
     inkscape:deskcolor="#d1d1d1"
     inkscape:document-units="mm"
     showgrid="false"
     inkscape:zoom="0.72515432"
     inkscape:cx="-17.23771"
     inkscape:cy="97.220685"
     inkscape:window-width="1920"
     inkscape:window-height="1001"
     inkscape:window-x="-9"
     inkscape:window-y="-9"
     inkscape:window-maximized="1"
     inkscape:current-layer="layer1" />
  <defs
     id="defs323" />
  <g
     inkscape:label="Layer 1"
     inkscape:groupmode="layer"
     id="layer1"
     transform="translate(-16.12514,-123.11537)">
    <path
       style="fill:#fff;stroke-width:0.0357133"
       d="m 24.494183,152.68538 c -0.385972,-0.0407 -0.477201,-0.11865 -0.423742,-0.36204 0.03176,-0.1446 0.296735,-0.40778 0.50959,-0.50613 0.247233,-0.11424 0.807721,-0.11172 1.060557,0.005 0.315406,0.14532 0.496727,0.37883 0.45671,0.58817 -0.02529,0.13228 -0.153357,0.22672 -0.370633,0.27332 -0.197795,0.0424 -0.839024,0.0434 -1.232482,0.002 z m 4.064989,-0.0191 c -0.10258,-0.0719 -0.101187,-0.19717 0.0033,-0.29531 0.161592,-0.15181 0.453045,-0.0639 0.453045,0.13663 0,0.12461 -0.112075,0.21428 -0.26785,0.21428 -0.06001,0 -0.144821,-0.025 -0.188477,-0.0556 z m -6.993886,-0.13832 c -0.03536,-0.0922 0.01357,-0.16322 0.112372,-0.16322 0.08014,0 0.09124,0.0134 0.08148,0.0982 -0.01303,0.11324 -0.156835,0.16146 -0.193848,0.065 z m -0.637637,-0.0184 c -0.03447,-0.0558 0.01089,-0.10911 0.09279,-0.10911 0.04911,0 0.06815,0.0197 0.05998,0.0621 -0.0137,0.0712 -0.118008,0.10327 -0.152768,0.047 z m -2.959893,-0.3887 c -0.07936,-0.0877 -0.07454,-0.17392 0.01232,-0.2204 0.161124,-0.0862 0.285535,0.10301 0.148971,0.2266 -0.0817,0.0739 -0.08901,0.0737 -0.161292,-0.006 z m 0.519451,0.0224 c -0.07382,-0.0738 -0.05249,-0.23498 0.03478,-0.26268 0.130483,-0.0414 0.230573,0.16161 0.129504,0.26268 -0.02357,0.0236 -0.06053,0.0429 -0.08214,0.0429 -0.02161,0 -0.05857,-0.0193 -0.08214,-0.0429 z m 0.479669,-0.0327 c -0.04095,-0.0585 -0.04416,-0.0948 -0.01415,-0.16071 0.04629,-0.10158 0.136783,-0.1098 0.218213,-0.0198 0.07575,0.0837 0.07448,0.12399 -0.0062,0.19701 -0.08671,0.0785 -0.134122,0.0745 -0.197859,-0.0165 z m -1.683209,-0.66243 c -0.03928,-0.0108 -0.09152,-0.036 -0.116068,-0.0559 -0.05792,-0.047 -0.0576,-0.22228 4.99e-4,-0.27049 0.02482,-0.0206 0.285978,-0.087 0.580342,-0.14753 0.294364,-0.0605 0.687882,-0.14932 0.874484,-0.19731 0.342695,-0.0881 1.892732,-0.41109 2.321367,-0.48368 0.378026,-0.064 0.363094,-0.0515 0.267211,-0.22447 -0.04585,-0.0827 -0.101748,-0.25487 -0.124211,-0.38255 -0.0293,-0.16655 -0.09036,-0.31513 -0.216098,-0.5259 -0.386308,-0.64753 -0.442792,-0.91757 -0.276636,-1.32259 l 0.09171,-0.22354 -0.09419,-0.0189 c -0.885833,-0.17795 -1.619568,-0.53403 -2.130561,-1.03397 -0.291914,-0.28559 -0.517136,-0.6828 -0.517136,-0.91203 0,-0.14689 0.188345,-0.71938 0.35989,-1.09393 0.0595,-0.12992 0.117043,-0.28049 0.127864,-0.3346 l 0.01968,-0.0984 -0.88908,0.0193 c -0.936268,0.0204 -1.190133,0.003 -1.278599,-0.085 -0.07683,-0.0768 -0.06904,-0.25261 0.01315,-0.2966 0.04066,-0.0218 0.523943,-0.0373 1.22541,-0.0395 l 1.15827,-0.004 0.354172,-0.70069 c 0.194795,-0.38538 0.438875,-0.84403 0.5424,-1.01923 0.103526,-0.17519 0.188227,-0.32443 0.188227,-0.33163 0,-0.007 0.08107,-0.18412 0.180146,-0.39315 0.09908,-0.20903 0.175091,-0.39521 0.168917,-0.41373 -0.0062,-0.0185 -0.213659,-0.10298 -0.461074,-0.18768 l -0.449852,-0.15401 -1.277066,0.42781 c -1.377853,0.46156 -1.630043,0.5181 -1.744551,0.39109 -0.153281,-0.17002 -0.0499,-0.22684 0.95855,-0.52683 0.176781,-0.0526 0.610698,-0.20396 0.96426,-0.33637 0.353562,-0.13242 0.751384,-0.27643 0.884048,-0.32002 l 0.241212,-0.0793 0.552803,0.16367 c 0.304042,0.09 0.560292,0.16367 0.569445,0.16367 0.0092,0 0.04368,-0.0924 0.07674,-0.20535 0.03306,-0.11295 0.105762,-0.34999 0.161567,-0.52677 0.05581,-0.17678 0.125797,-0.41641 0.155539,-0.5325 l 0.05407,-0.21107 -0.155007,-0.16571 c -0.220398,-0.23563 -0.286571,-0.45654 -0.2643,-0.88234 l 0.01751,-0.33485 -0.280507,-0.14594 c -0.154278,-0.0803 -0.345287,-0.20447 -0.42446,-0.27601 l -0.14395,-0.13008 0.08854,-0.41071 c 0.0487,-0.22588 0.185917,-0.82051 0.304931,-1.32139 0.119011,-0.50088 0.264311,-1.1233 0.322888,-1.38315 0.219466,-0.97359 0.727427,-2.93556 0.866802,-3.34797 0.142371,-0.42128 0.143907,-0.4313 0.102926,-0.67029 -0.02289,-0.13344 -0.04161,-0.30115 -0.04161,-0.37267 0,-0.14054 -6.07e-4,-0.13984 0.722799,-0.82519 0.195612,-0.18532 0.319513,-0.33191 0.331973,-0.39275 0.07823,-0.38209 0.213101,-0.59721 0.48628,-0.77563 l 0.164042,-0.10714 -0.01806,-0.25393 c -0.0181,-0.25445 0.04961,-0.77053 0.155628,-1.18622 0.162499,-0.63714 0.574477,-1.09482 1.166008,-1.29534 0.186756,-0.0633 0.282689,-0.0732 0.585045,-0.0601 0.324195,0.014 0.389786,0.029 0.633198,0.14461 0.367115,0.17435 0.600641,0.3996 0.76504,0.73796 0.128336,0.26412 0.131554,0.28098 0.143607,0.7523 0.01531,0.59884 -0.04444,1.45596 -0.119015,1.70707 l -0.05614,0.18905 0.105637,0.14364 c 0.0581,0.079 0.2386,0.23495 0.40111,0.34655 0.358602,0.24626 0.443431,0.35219 0.438317,0.54734 -0.0033,0.12696 0.01509,0.16191 0.1517,0.28783 0.08552,0.0788 0.197359,0.2289 0.248533,0.3335 0.05117,0.10459 0.218972,0.69346 0.372886,1.30859 0.642522,2.56788 0.596731,2.41566 1.018677,3.38622 0.13236,0.30445 0.295778,0.68212 0.363144,0.83926 0.06737,0.15714 0.217894,0.47906 0.334498,0.71538 0.116604,0.23631 0.212009,0.46027 0.212009,0.49768 0,0.0374 -0.03616,0.10742 -0.08036,0.15557 -0.05898,0.0643 -0.06784,0.092 -0.03329,0.1043 0.02588,0.009 0.162488,0.10855 0.303563,0.22076 0.326566,0.25975 0.460166,0.48808 0.471177,0.80526 l 0.0076,0.21983 0.267222,0.26722 c 0.193702,0.1937 0.304303,0.34225 0.402,0.53993 0.1249,0.25272 0.137482,0.30739 0.171617,0.74575 0.02566,0.3296 0.02538,0.54703 -9.31e-4,0.71704 -0.0287,0.18543 -0.02673,0.29147 0.0082,0.44171 0.02528,0.10874 0.05489,0.20664 0.06581,0.21756 0.01092,0.0109 0.102322,-0.008 0.203123,-0.041 0.27185,-0.0903 0.500376,-0.0722 1.147738,0.0908 0.678407,0.17082 1.216653,0.24715 1.619967,0.22973 0.228784,-0.01 0.410222,-0.0528 0.910691,-0.21559 0.343741,-0.11178 0.77364,-0.25016 0.955331,-0.30751 l 0.330349,-0.10427 v -3.14295 -3.14295 l -2.504123,0.009 -2.504123,0.009 -0.102951,-0.11522 -0.102951,-0.11522 v -1.28674 -1.28674 l 0.08766,-0.0877 0.08766,-0.0877 h 2.519412 2.519415 v -0.38706 -0.38705 l -1.291516,-0.0237 c -0.710338,-0.013 -1.836544,-0.0237 -2.502683,-0.0237 h -1.211161 l -0.104394,-0.10439 -0.104393,-0.10439 v -1.32097 -1.32097 l 0.116068,-0.0978 0.116068,-0.0978 1.825531,0.0254 c 1.004037,0.0139 2.12499,0.0139 2.491005,0 l 0.665475,-0.0254 v -0.55164 c 0,-0.50712 0.0062,-0.56034 0.07674,-0.65941 0.106362,-0.14937 0.26809,-0.20683 0.582188,-0.20683 0.267836,0 0.26869,3.3e-4 0.429707,0.15459 l 0.161335,0.15459 v 0.55968 0.55968 l 2.026732,3.2e-4 2.026731,3.3e-4 0.218474,0.16959 c 0.194324,0.15085 1.012791,0.88014 1.377392,1.22731 0.07493,0.0714 0.136231,0.1573 0.136231,0.191 0,0.0337 -0.164728,0.22503 -0.36606,0.4252 -0.201335,0.20016 -0.484538,0.50942 -0.629345,0.68725 l -0.263286,0.32333 -1.278448,0.0243 c -0.703146,0.0134 -1.703569,0.0134 -2.223159,7e-5 -0.51959,-0.0133 -0.966849,-0.0157 -0.993913,-0.005 -0.0387,0.0148 -0.04681,0.10408 -0.03801,0.41814 l 0.01119,0.39935 1.979326,-0.006 1.979331,-0.006 0.205851,0.1761 c 0.113219,0.0968 0.278435,0.23123 0.367148,0.2986 0.395985,0.30075 1.05714,0.85803 1.099299,0.92659 0.02549,0.0414 0.03728,0.10389 0.02621,0.13876 -0.01107,0.0349 -0.232807,0.23342 -0.492754,0.44121 -0.259947,0.2078 -0.633059,0.52589 -0.829136,0.70688 l -0.356501,0.32906 -1.99165,-0.0264 -1.991652,-0.0264 -0.0017,0.58417 c -9.58e-4,0.3213 -0.005,1.64888 -0.0089,2.95018 -0.0048,1.5743 0.0049,2.36601 0.0289,2.36601 0.01985,0 0.196627,-0.0563 0.392847,-0.12518 0.596263,-0.20921 1.170245,-0.37002 1.32103,-0.37012 0.402957,-2.7e-4 3.317762,0.87459 3.909907,1.1735 0.269685,0.13614 0.305966,0.18255 0.243118,0.31099 -0.04462,0.0912 -0.06412,0.0993 -0.220058,0.0911 -0.101887,-0.005 -0.361312,-0.0824 -0.641354,-0.19044 -0.258644,-0.0998 -0.639005,-0.23791 -0.84525,-0.30687 -0.501082,-0.16753 -2.336298,-0.64692 -2.350323,-0.61393 -0.0061,0.0143 0.01399,0.0746 0.04464,0.13389 0.131855,0.25497 0.04301,0.49081 -0.304692,0.80888 -0.276821,0.25322 -1.098331,0.69524 -1.391838,0.74889 -0.216623,0.0396 -0.212565,0.0266 -0.187813,0.5998 l 0.02268,0.52513 h 0.217998 c 0.235379,0 0.966485,0.18382 1.375817,0.34592 0.612469,0.24255 0.919097,0.45129 1.115278,0.75926 0.245804,0.38587 0.06771,0.7813 -0.535065,1.18805 -0.292545,0.19741 -0.934668,0.50898 -1.172244,0.56881 -0.421428,0.10611 -0.458098,-0.20093 -0.03874,-0.32433 0.141557,-0.0417 0.303492,-0.1226 0.775784,-0.38775 0.228408,-0.12823 0.561845,-0.40388 0.651536,-0.53861 0.08928,-0.13412 0.07748,-0.25887 -0.03979,-0.42076 -0.203135,-0.28042 -0.777434,-0.54909 -1.664665,-0.77876 -0.325934,-0.0844 -0.527436,-0.15565 -0.580202,-0.20522 -0.04446,-0.0418 -0.0869,-0.0692 -0.0943,-0.0609 -0.0074,0.008 -0.02494,0.78241 -0.03898,1.72033 l -0.02551,1.70532 0.08348,-4.1e-4 c 0.128729,-5.4e-4 0.888777,0.3312 0.928933,0.40545 0.01958,0.0362 0.02551,0.10601 0.01318,0.15512 -0.02178,0.0868 -0.02855,0.0886 -0.240975,0.0639 -0.120211,-0.014 -0.324381,-0.0556 -0.453713,-0.0926 -0.358534,-0.10253 -0.443535,-0.0897 -1.06374,0.16032 -0.310452,0.12516 -0.805525,0.29576 -1.10016,0.37911 -0.294635,0.0834 -0.800872,0.22938 -1.12497,0.3245 -0.598059,0.17552 -1.056658,0.29983 -2.419454,0.65585 -0.417332,0.10902 -0.875355,0.22896 -1.01783,0.26651 -0.473698,0.12488 -1.826773,0.4297 -2.080427,0.46868 -0.23719,0.0365 -1.434073,0.28902 -2.285654,0.48231 -0.339259,0.077 -2.69971,0.55827 -4.98201,1.01577 -0.816739,0.16372 -1.60269,0.34946 -2.053517,0.48531 -0.316296,0.0953 -0.339648,0.097 -1.464247,0.10781 -0.628555,0.006 -1.174969,0.002 -1.214254,-0.009 z m 6.691173,-1.76145 c 0.360594,-0.0592 0.665943,-0.10766 0.678553,-0.1077 0.01261,-4e-5 0.02641,-0.15066 0.03066,-0.33471 0.0042,-0.18404 0.02032,-0.39694 0.03571,-0.47311 0.0154,-0.0762 0.01996,-0.27316 0.01013,-0.43775 l -0.01786,-0.29925 -0.678554,-0.01 c -0.399529,-0.006 -0.824506,-0.0334 -1.033494,-0.0669 -0.270682,-0.0435 -0.361147,-0.047 -0.381093,-0.0147 -0.01439,0.0233 -0.04514,0.14291 -0.06834,0.26586 -0.04987,0.26433 -0.02484,0.49539 0.0951,0.87775 0.06888,0.21957 0.127182,0.32232 0.289446,0.51005 0.172299,0.19934 0.216951,0.23227 0.293656,0.21658 0.04975,-0.0102 0.385486,-0.067 0.746077,-0.12614 z m 4.219252,-0.68312 c 0.324099,-0.0773 0.685696,-0.16386 0.80355,-0.19228 0.117854,-0.0284 0.387654,-0.085 0.599552,-0.12562 0.211898,-0.0407 0.517247,-0.11217 0.678554,-0.15887 0.161306,-0.0467 0.429885,-0.11218 0.596845,-0.14551 0.485222,-0.0969 1.062814,-0.28398 1.47781,-0.47873 0.211638,-0.0993 0.392408,-0.18058 0.401704,-0.18058 0.03534,0 0.604059,-0.22775 0.634505,-0.2541 0.04118,-0.0356 -0.240901,-0.44816 -0.534883,-0.78222 -0.228269,-0.25939 -0.277542,-0.3759 -0.175531,-0.41504 0.107233,-0.0411 0.237176,0.0289 0.48212,0.25998 0.156138,0.1473 0.249921,0.21417 0.249921,0.17821 0,-0.0317 -0.06666,-0.23047 -0.148135,-0.44181 -0.228719,-0.59328 -0.242093,-0.63654 -0.221358,-0.71584 0.05978,-0.22858 0.299713,-0.0266 0.463098,0.38982 0.139047,0.35441 0.182435,0.37045 0.150864,0.0558 -0.01417,-0.14128 -0.02676,-0.47536 -0.02798,-0.7424 -0.002,-0.42924 0.0055,-0.49247 0.06405,-0.54549 0.08215,-0.0743 0.160985,-0.0473 0.216355,0.0742 0.04407,0.0967 0.105919,0.79763 0.111211,1.26034 l 0.0031,0.26785 0.136964,-0.29131 c 0.168853,-0.35913 0.31701,-0.46486 0.399058,-0.28478 0.05093,0.11177 -0.05874,0.54272 -0.274143,1.07726 -0.185734,0.46093 -0.196416,0.53385 -0.07367,0.50304 0.04681,-0.0117 0.291892,-0.0632 0.544629,-0.11441 0.576534,-0.11676 0.956106,-0.23583 1.298776,-0.40744 0.147317,-0.0738 0.320081,-0.14546 0.383918,-0.1593 l 0.116069,-0.0252 v -1.90336 c 0,-1.83534 -0.01241,-2.18635 -0.07378,-2.08704 -0.0154,0.0249 -0.0734,0.0491 -0.128886,0.0538 -0.202806,0.0171 -1.105867,0.15758 -1.579137,0.24565 -0.472437,0.0879 -0.953292,0.19741 -2.057377,0.46853 -0.394868,0.097 -0.62823,0.1341 -0.887659,0.14127 l -0.351959,0.01 -0.118946,0.17662 c -0.06542,0.0971 -0.184263,0.22836 -0.264097,0.29159 l -0.145153,0.11496 v 0.26574 0.26574 l 0.10634,0.0213 c 0.147089,0.0294 0.185545,0.0893 0.172624,0.26894 l -0.01111,0.15442 H 29.74763 28.283383 l -0.01098,-0.15177 c -0.01019,-0.14076 -0.0018,-0.15722 0.116068,-0.22674 l 0.12705,-0.075 v -0.27662 -0.27662 l -0.184566,-0.21091 c -0.101508,-0.116 -0.239587,-0.32677 -0.306835,-0.46838 l -0.122272,-0.25746 0.03973,-0.43895 c 0.02185,-0.24142 0.09004,-0.83268 0.151521,-1.31392 0.06149,-0.48124 0.108805,-0.93122 0.105147,-0.99997 -0.02835,-0.53344 -0.02766,-1.19322 0.0014,-1.35266 0.04754,-0.26065 0.168588,-0.52091 0.346247,-0.74445 0.0815,-0.10254 0.148175,-0.20413 0.148175,-0.22574 0,-0.0216 -0.0683,-0.17464 -0.151782,-0.34006 -0.1068,-0.21164 -0.167656,-0.29605 -0.205351,-0.28482 -0.819957,0.24418 -0.75872,0.24871 -0.917926,-0.0678 -0.195727,-0.38912 -0.265947,-0.4887 -0.315584,-0.4475 -0.06142,0.051 -0.08197,0.30441 -0.107076,1.32023 -0.02206,0.89256 -0.06899,1.66646 -0.122365,2.0178 -0.0179,0.11786 -0.05058,0.43124 -0.07262,0.69641 -0.02203,0.26517 -0.06316,0.73927 -0.09139,1.05355 -0.02823,0.31427 -0.05966,0.68391 -0.06984,0.8214 -0.02113,0.28534 -0.04799,0.55058 -0.07414,0.73213 l -0.018,0.12499 h 0.792157 c 0.71311,0 0.796079,0.006 0.831478,0.062 0.03121,0.0492 0.02352,0.0778 -0.03727,0.13859 -0.08547,0.0855 -0.317392,0.11932 -1.136674,0.16587 l -0.464273,0.0264 -0.0076,0.32142 c -0.0093,0.39377 -0.08082,1.81672 -0.09877,1.96424 -0.0072,0.0589 -0.04004,0.40367 -0.07304,0.76611 -0.06314,0.69331 -0.09043,0.82313 -0.173059,0.82313 -0.0681,0 -0.09399,0.0788 -0.09399,0.2862 0,0.15027 0.01369,0.18295 0.103312,0.24678 0.171074,0.12181 0.550717,0.28837 0.657371,0.2884 0.16225,4e-5 0.299682,0.0939 0.369587,0.25231 l 0.06452,0.14624 0.161513,-0.0239 c 0.08883,-0.0131 0.426685,-0.0871 0.750784,-0.16446 z m 1.241039,-1.24874 c -0.130201,-0.0758 -0.04975,-0.24713 0.116068,-0.24713 0.169835,0 0.246943,0.17517 0.109486,0.24873 -0.08558,0.0458 -0.144892,0.0454 -0.225554,-0.002 z m -7.470449,0.35489 c 0.10544,-0.20937 0.124154,-0.27818 0.104419,-0.38391 -0.03259,-0.17458 -0.277371,-0.40759 -0.485591,-0.46224 -0.153899,-0.0404 -0.159128,-0.0389 -0.256936,0.0747 -0.108118,0.1255 -0.346576,0.57712 -0.346576,0.65639 0,0.0299 0.0397,0.0488 0.102651,0.0488 0.149417,0 0.383897,0.0911 0.55116,0.21408 0.08027,0.059 0.158657,0.10734 0.174181,0.10734 0.01553,0 0.08604,-0.11479 0.156692,-0.2551 z m 3.995559,-0.98592 c 0.01263,-0.21117 0.04705,-0.70272 0.07649,-1.09235 0.02944,-0.38962 0.06823,-1.07264 0.0862,-1.51781 0.01797,-0.44518 0.05706,-1.04244 0.08687,-1.32726 0.02981,-0.28481 0.05455,-0.6158 0.05499,-0.73553 4.27e-4,-0.11973 0.03183,-0.45722 0.06977,-0.74998 0.08354,-0.64461 0.158503,-1.96708 0.155692,-2.74652 -0.0017,-0.47687 -0.01408,-0.60686 -0.07471,-0.78569 -0.08252,-0.2434 -0.105915,-0.50173 -0.132611,-1.46425 -0.01035,-0.3732 -0.0262,-0.76694 -0.03523,-0.87497 -0.03721,-0.44543 -0.05719,-0.6674 -0.07073,-0.7857 -0.06776,-0.59202 -0.0919,-0.8574 -0.108819,-1.19639 -0.01079,-0.21607 -0.08188,-0.79463 -0.157996,-1.28568 -0.187673,-1.21087 -0.187452,-1.20892 -0.149321,-1.30667 0.0389,-0.0997 0.170271,-0.24686 0.220423,-0.24686 0.01887,0 0.06369,0.0294 0.09959,0.0653 0.05065,0.0507 0.07946,0.18865 0.128639,0.61606 0.08206,0.7132 0.321945,2.12322 0.415732,2.44359 0.204312,0.69791 0.559774,1.72243 0.71867,2.07138 0.246051,0.54033 0.410411,0.88414 0.448828,0.93885 0.04178,0.0595 0.41631,-0.0718 0.919221,-0.32223 0.421614,-0.20995 0.589271,-0.32854 0.589271,-0.41679 0,-0.0354 -0.08665,-0.24754 -0.192552,-0.47139 -0.325056,-0.68706 -0.939379,-2.14288 -1.015684,-2.40694 -0.09956,-0.34456 -0.46322,-1.78386 -0.663229,-2.62493 -0.20232,-0.8508 -0.2782,-1.02491 -0.563896,-1.29388 l -0.217348,-0.20463 -0.179806,0.0975 c -0.23425,0.127 -0.596669,0.48504 -0.875891,0.86532 -0.649315,0.8843 -1.108949,1.35583 -1.498038,1.53682 -0.131915,0.0614 -0.280018,0.13101 -0.329124,0.15478 -0.05597,0.0271 -0.09133,0.076 -0.09476,0.13114 -0.003,0.0484 -0.02269,0.56201 -0.04372,1.14146 -0.03295,0.90768 -0.05424,1.3033 -0.125732,2.33629 -0.01351,0.19528 -0.07994,0.27079 -0.238222,0.27079 -0.175442,0 -0.183056,-0.0412 -0.142868,-0.77371 0.0456,-0.83102 0.10414,-2.15391 0.117479,-2.65477 l 0.01,-0.37499 -0.235683,-0.0233 c -0.223991,-0.0222 -0.440481,-0.10534 -0.640404,-0.24606 -0.06746,-0.0475 -0.106844,-0.0544 -0.155225,-0.0273 -0.04485,0.0251 -0.07698,0.0241 -0.104244,-0.003 -0.02168,-0.0217 -0.05099,-0.0394 -0.06514,-0.0394 -0.03157,0 -0.05848,0.29454 -0.08482,0.92855 -0.06725,1.61873 -0.466423,5.05934 -0.733902,6.32569 -0.08038,0.38056 -0.403061,1.31919 -0.606205,1.76338 -0.300778,0.65766 -0.528572,1.13077 -0.662004,1.37496 -0.0805,0.14732 -0.234894,0.42856 -0.343091,0.62498 -0.622644,1.13033 -0.8229,1.55469 -1.080721,2.29016 l -0.114254,0.32593 0.09609,-0.0276 c 0.05285,-0.0152 0.262764,-0.0384 0.46647,-0.0516 0.512279,-0.0332 1.410423,0.093 1.933673,0.27179 0.643001,0.2197 1.184037,0.47972 1.85909,0.89347 0.578135,0.35435 0.85821,0.49629 1.362086,0.69026 0.391129,0.15057 0.716034,0.24353 1.012962,0.2898 l 0.154725,0.0241 -0.02562,-0.17083 c -0.01527,-0.10185 -0.01234,-0.16263 0.0073,-0.15051 0.01808,0.0112 0.03629,-0.0468 0.04046,-0.12884 0.0042,-0.082 0.03101,-0.21345 0.05966,-0.29202 0.05677,-0.15573 0.07558,-0.0929 0.02245,0.075 -0.08733,0.276 -0.08563,0.2818 0.0834,0.28543 0.08505,0.002 0.181331,0.0259 0.213948,0.0536 0.03262,0.0276 0.08094,0.0696 0.10739,0.0932 0.02644,0.0236 0.05996,0.0317 0.07447,0.0179 0.01451,-0.0138 0.01978,0.034 0.01171,0.10633 -0.0081,0.0723 -0.0035,0.12452 0.01013,0.11609 0.01365,-0.008 0.03514,-0.18811 0.04778,-0.39927 z m -0.440092,-2.94017 c -0.109569,-0.0439 -0.08986,-0.1577 0.07749,-0.4474 0.0669,-0.11581 0.151367,-0.29896 0.187709,-0.40699 0.09657,-0.28706 0.111829,-0.28382 0.117811,0.025 0.0079,0.40624 -0.05467,0.74863 -0.148788,0.81455 -0.08647,0.0606 -0.115451,0.0624 -0.234219,0.0149 z m -1.873972,-0.49114 c -0.112436,-0.12424 -0.07113,-0.21006 0.279235,-0.58022 0.508876,-0.53761 1.07169,-1.43714 1.393971,-2.22793 0.153371,-0.37634 0.310052,-0.67573 0.374461,-0.71554 0.06742,-0.0417 0.18697,0.0554 0.168603,0.13689 -0.159907,0.70964 -0.280071,1.02132 -0.642472,1.66644 -0.53294,0.9487 -1.203268,1.78567 -1.430148,1.78567 -0.0465,0 -0.111144,-0.0294 -0.14365,-0.0653 z m -1.238996,-11.40125 -0.123646,-0.10972 0.133925,0.0961 c 0.11835,0.0849 0.15686,0.12334 0.123646,0.12334 -0.0057,0 -0.06592,-0.0494 -0.133925,-0.10972 z m -0.2532,-0.23849 c -0.04442,-0.0566 -0.04316,-0.0579 0.01349,-0.0135 0.03437,0.0269 0.0625,0.0551 0.0625,0.0625 0,0.0294 -0.02933,0.0105 -0.07598,-0.049 z m 7.489833,12.5738 c 0.02763,-0.0106 0.05024,-0.0314 0.05024,-0.0463 0,-0.03 -0.264907,-0.0725 -0.452523,-0.0725 -0.145864,0 -0.170396,-0.0485 -0.129376,-0.25597 0.02326,-0.11765 0.05782,-0.17186 0.144165,-0.22616 0.06246,-0.0393 0.114182,-0.0835 0.114939,-0.0982 0.0024,-0.0469 -0.2483,-0.0288 -0.353347,0.0255 -0.127497,0.0659 -0.155246,0.17598 -0.124094,0.49214 l 0.02466,0.25028 0.337548,-0.0248 c 0.185652,-0.0136 0.360155,-0.0335 0.387786,-0.0441 z m -0.596166,-1.10304 c 0.04236,-0.0397 0.02534,-0.0743 -0.111329,-0.22629 -0.21093,-0.23461 -0.281003,-0.38965 -0.323941,-0.71674 -0.03979,-0.30308 0.0016,-0.5052 0.234086,-1.14405 0.06986,-0.19195 0.132789,-0.44396 0.144914,-0.58034 0.01994,-0.22431 0.01647,-0.24107 -0.04991,-0.24107 -0.08643,0 -0.23849,0.0952 -0.282046,0.17659 -0.07101,0.13269 -0.250711,1.68281 -0.250936,2.16463 0,0.21052 0.01409,0.27124 0.08622,0.369 0.192909,0.26148 0.404493,0.33735 0.552939,0.19827 z m 1.7545,0.0324 c 0.155349,-0.10388 0.290928,-0.24198 0.325798,-0.33184 0.04311,-0.11111 -0.0212,-0.90659 -0.118539,-1.46621 -0.03929,-0.22589 -0.09379,-0.53844 -0.121122,-0.69456 -0.05095,-0.29106 -0.106572,-0.38425 -0.25595,-0.42883 -0.07846,-0.0234 -0.07949,-0.0192 -0.0753,0.30876 0.0035,0.27182 0.01955,0.36309 0.08804,0.5001 0.371819,0.74372 0.361541,1.44731 -0.02731,1.86915 -0.19397,0.21044 -0.182988,0.26549 0.05937,0.29761 0.02018,0.003 0.07643,-0.0217 0.124997,-0.0542 z m 1.06609,-0.37427 c 0.592041,-0.14055 2.945864,-0.83962 3.238496,-0.96181 0.195262,-0.0815 0.491626,-0.20115 0.658586,-0.2658 0.500972,-0.194 0.708299,-0.29685 0.748019,-0.37107 0.04681,-0.0875 0.04845,-0.39573 0.0025,-0.46794 -0.02916,-0.0458 -0.131086,-0.0215 -0.704792,0.16835 -0.368883,0.12206 -0.759087,0.24922 -0.86712,0.28259 -0.108033,0.0334 -0.276778,0.0981 -0.37499,0.14379 -0.285903,0.13309 -0.713938,0.11124 -1.839237,-0.0939 -0.292653,-0.0534 -0.443738,-0.10407 -0.688092,-0.23099 -0.302899,-0.15732 -0.584081,-0.25098 -0.61118,-0.20359 -0.0072,0.0127 -0.0012,0.10339 0.01345,0.2016 0.131982,0.88548 0.183203,1.35989 0.172596,1.59868 -0.01,0.2252 -0.003,0.27371 0.03721,0.25828 0.02724,-0.0104 0.123797,-0.0366 0.214569,-0.0582 z m -2.407326,-0.51657 c 0.09096,-0.13882 0.277154,-0.21237 0.436853,-0.17256 0.170306,0.0425 0.278507,0.19932 0.307745,0.44619 0.02741,0.23144 0.04682,0.25156 0.135039,0.14002 0.171071,-0.21628 0.226359,-0.36875 0.226427,-0.62445 0,-0.21969 -0.0232,-0.30755 -0.191867,-0.72485 -0.105565,-0.26116 -0.218176,-0.48889 -0.250243,-0.50605 -0.05707,-0.0306 -0.767326,5.4e-4 -0.798747,0.0349 -0.0088,0.01 -0.07298,0.16209 -0.142707,0.33887 -0.28386,0.71967 -0.266289,1.16748 0.05929,1.5111 l 0.112072,0.11828 0.02403,-0.23642 c 0.01322,-0.13003 0.05016,-0.2763 0.0821,-0.32504 z m 8.680759,-1.26723 c 0.50374,-0.20971 0.964057,-0.56127 1.0878,-0.8308 0.06481,-0.14116 0.05853,-0.27301 -0.01305,-0.27397 -0.02226,-2.7e-4 -0.01637,-0.0161 0.01309,-0.0352 0.08777,-0.0567 -0.03457,-0.045 -0.247372,0.0238 -0.129314,0.0418 -0.170417,0.0691 -0.138028,0.0916 0.03082,0.0215 0.02074,0.0251 -0.03041,0.0108 -0.04698,-0.0131 -0.255475,0.043 -0.539921,0.14539 l -0.463377,0.16678 -0.02231,0.23619 c -0.0291,0.30804 -0.02871,0.52195 9.99e-4,0.55166 0.03841,0.0384 0.07431,0.0296 0.352594,-0.0862 z m -9.388515,-1.26494 c 0.07052,-0.0295 0.164417,-0.0536 0.208669,-0.0536 0.06154,0 0.0857,-0.0262 0.10278,-0.1116 0.03634,-0.18169 0.0277,-0.20982 -0.06441,-0.20982 -0.07607,0 -0.198973,-0.0802 -0.198973,-0.12989 0,-0.0589 0.0883,-0.1627 0.177852,-0.20901 0.128672,-0.0665 1.313851,-0.078 1.4961,-0.0145 0.207991,0.0725 0.254193,0.29661 0.07409,0.35939 -0.09769,0.034 -0.107918,0.0514 -0.09821,0.16616 0.01068,0.12632 0.01389,0.12873 0.225115,0.16926 0.117854,0.0226 0.244926,0.0541 0.282382,0.0701 0.06536,0.0278 0.06728,0.0126 0.04768,-0.37877 -0.01528,-0.30507 -0.04242,-0.46808 -0.107772,-0.64733 -0.0994,-0.27264 -0.317363,-0.5811 -0.465152,-0.65829 -0.09538,-0.0498 -0.104729,-0.0472 -0.201655,0.0566 l -0.101644,0.10881 -0.479462,-0.0116 c -0.489484,-0.0119 -0.525018,-0.0194 -0.657597,-0.13841 -0.07585,-0.0681 -0.07656,-0.0678 -0.200902,0.0857 -0.06863,0.0847 -0.15081,0.20531 -0.18262,0.26798 -0.08461,0.16668 -0.145503,0.7292 -0.114286,1.05566 0.0292,0.30537 0.03969,0.31444 0.258018,0.22321 z m 1.092678,-2.0532 0.241065,-2.7e-4 v -0.1875 -0.18749 l -0.341066,-0.33788 c -0.283799,-0.28114 -0.351237,-0.33154 -0.401632,-0.30014 -0.169935,0.10588 -0.332152,0.62074 -0.257265,0.81652 0.07692,0.2011 0.140989,0.24233 0.339552,0.21852 0.09821,-0.0118 0.287046,-0.0215 0.419632,-0.0217 z m -9.314803,-1.07584 c -0.01448,-0.0234 0.03058,-0.36093 0.0686,-0.51372 0.0098,-0.0393 0.019,-0.10853 0.0205,-0.15389 0.0015,-0.0454 0.01879,-0.0725 0.03845,-0.0604 0.01964,0.0121 0.03607,0.0171 0.03651,0.011 4.32e-4,-0.006 0.01096,-0.15567 0.02338,-0.33245 0.03627,-0.51642 0.02611,-0.50086 0.323431,-0.49505 l 0.252636,0.005 0.01553,-0.12994 c 0.01772,-0.14829 -0.03342,-0.25493 -0.122268,-0.25493 -0.0334,0 -0.0716,-0.0176 -0.08488,-0.0391 -0.01328,-0.0215 -0.05924,-0.0324 -0.102133,-0.0242 -0.06508,0.0124 -0.07935,-0.003 -0.08625,-0.0936 -0.01097,-0.14393 0.02669,-0.30743 0.0708,-0.30743 0.01945,0 0.105443,0.0482 0.191091,0.10714 0.08565,0.0589 0.162557,0.10714 0.17091,0.10714 0.0084,0 0.02526,-0.10045 0.03758,-0.22321 0.139368,-1.3891 0.167,-1.74031 0.162268,-2.06245 -0.003,-0.20624 0.01584,-0.54819 0.04193,-0.75988 0.06054,-0.49128 3.51e-4,-1.11136 -0.09844,-1.01265 -0.04756,0.0476 -0.795726,3.0593 -1.189994,4.79031 -0.06263,0.27499 -0.152367,0.66844 -0.199405,0.87433 -0.04704,0.20588 -0.08553,0.38483 -0.08553,0.39765 0,0.0407 0.371736,0.20473 0.45277,0.19975 0.04278,-0.003 0.07092,-0.0159 0.06252,-0.0295 z m 0.951771,-4.51659 c 0.0017,-0.0416 0.01018,-0.0501 0.02158,-0.0216 0.01032,0.0258 0.0091,0.0566 -0.0028,0.0685 -0.01187,0.0119 -0.02031,-0.009 -0.01876,-0.0469 z m 20.327164,1.25983 0.164882,-0.16488 -0.310195,-0.0103 c -0.308953,-0.0102 -0.310238,-0.0107 -0.321496,-0.10849 l -0.0113,-0.0982 h 0.462274 c 0.388254,0 0.470119,-0.01 0.511287,-0.0596 0.02696,-0.0328 0.166705,-0.14677 0.310548,-0.25333 0.143847,-0.10656 0.253075,-0.20221 0.242733,-0.21255 -0.01034,-0.0103 -0.0657,-0.053 -0.123018,-0.0949 -0.05732,-0.0418 -0.188078,-0.14438 -0.290582,-0.22786 l -0.186367,-0.15178 h -0.597091 c -0.631965,0 -0.73889,-0.0245 -0.712502,-0.16307 0.01187,-0.0623 0.0601,-0.0721 0.495433,-0.0998 l 0.482283,-0.0307 -0.120978,-0.12828 -0.120983,-0.12828 -4.959732,-0.01 -4.959737,-0.01 v 0.15462 0.15462 l 0.580021,0.0248 c 0.319013,0.0136 0.593816,0.0386 0.610676,0.0554 0.05613,0.0561 -0.01364,0.17423 -0.126082,0.21343 -0.06106,0.0213 -0.325574,0.0387 -0.587813,0.0387 h -0.476802 v 0.16071 0.16071 h 0.336359 c 0.184995,0 0.361776,0.01 0.392847,0.0217 0.06471,0.0248 0.07637,0.1761 0.01643,0.21314 -0.02203,0.0136 -0.20283,0.0347 -0.401775,0.0468 l -0.361715,0.022 -0.01098,0.15178 -0.01098,0.15179 0.564538,0.005 c 0.777755,0.007 0.760962,0.004 0.760962,0.15685 0,0.12165 -0.08938,0.13584 -0.732484,0.11629 l -0.54746,-0.0166 -0.02246,0.11971 c -0.01235,0.0658 -0.01517,0.13148 -0.0063,0.14588 0.0089,0.0144 2.240637,0.0246 4.959419,0.0228 l 4.943237,-0.003 0.164884,-0.16489 z m -8.38387,-0.42507 c -0.210459,-0.0738 -0.284649,-0.19018 -0.177745,-0.27891 0.04431,-0.0368 0.08013,-0.0335 0.193323,0.0175 0.13279,0.0599 0.23999,0.05 0.197806,-0.0183 -0.01095,-0.0177 -0.09022,-0.0633 -0.176135,-0.10134 -0.207926,-0.092 -0.287471,-0.21129 -0.227951,-0.34192 0.05393,-0.11836 0.200305,-0.19813 0.363541,-0.19813 0.151224,0 0.295288,0.10619 0.261942,0.19308 -0.01949,0.0508 -0.05124,0.0572 -0.18452,0.0372 -0.132592,-0.0199 -0.160977,-0.0143 -0.160977,0.0318 0,0.0339 0.05091,0.07 0.129221,0.0916 0.07107,0.0196 0.159464,0.063 0.196424,0.0965 0.13345,0.12076 0.05878,0.35399 -0.147472,0.46065 -0.117686,0.0609 -0.12235,0.061 -0.267457,0.0102 z m 0.69641,-0.45813 v -0.46561 l 0.330349,0.0103 c 0.305531,0.01 0.331162,0.016 0.341151,0.086 0.01223,0.0857 -0.06848,0.11944 -0.287581,0.12024 -0.109951,4e-4 -0.133925,0.0133 -0.133925,0.0719 0,0.061 0.02381,0.0714 0.163195,0.0714 0.148811,0 0.162189,0.007 0.151782,0.0804 -0.0088,0.0622 -0.04562,0.0879 -0.163196,0.114 -0.233026,0.0517 -0.195934,0.12707 0.0625,0.12707 0.187427,0 0.21428,0.009 0.21428,0.0685 0,0.16794 -0.02695,0.18149 -0.360951,0.18149 h -0.317603 z m 0.955332,0.44099 c -0.05522,-0.0144 -0.06247,-0.067 -0.06229,-0.4512 l 3.51e-4,-0.43487 0.339066,-0.0118 c 0.345798,-0.012 0.387522,0.005 0.309889,0.1274 -0.0212,0.0334 -0.32241,0.11649 -0.422114,0.11649 -0.0071,0 -0.01299,0.0241 -0.01299,0.0536 0,0.0405 0.04365,0.0536 0.178566,0.0536 0.119336,0 0.178389,0.0148 0.178021,0.0446 -9.99e-4,0.0811 -0.05157,0.12688 -0.175646,0.15903 -0.21204,0.055 -0.176799,0.11775 0.06608,0.11775 0.231112,0 0.26104,0.03 0.180288,0.18091 -0.0313,0.0585 -0.07373,0.0684 -0.276778,0.0649 -0.131897,-0.002 -0.267936,-0.0115 -0.30231,-0.0205 z m 0.866049,-0.0103 c -0.04246,-0.0268 -0.05357,-0.11737 -0.05357,-0.43691 v -0.40314 l 0.09593,-0.0111 c 0.08734,-0.0101 0.09693,8.7e-4 0.10714,0.12226 l 0.01121,0.13333 0.171814,-0.14904 c 0.278381,-0.24148 0.477008,-0.18286 0.221033,0.0652 -0.06875,0.0666 -0.124997,0.15251 -0.124997,0.19083 0,0.0383 0.05625,0.13831 0.124997,0.22221 0.149753,0.18275 0.157307,0.25605 0.02969,0.28808 -0.07501,0.0188 -0.109643,0.006 -0.162624,-0.0618 -0.190359,-0.24245 -0.178956,-0.23518 -0.215976,-0.13779 -0.07824,0.2058 -0.112726,0.23577 -0.204645,0.17783 z m 1.880903,0.0111 c -0.01309,-0.0131 -0.02381,-0.0854 -0.02381,-0.1607 0,-0.13265 -0.0039,-0.13691 -0.124997,-0.13691 -0.112418,0 -0.12505,0.01 -0.125543,0.0982 -7.55e-4,0.13723 -0.04714,0.19577 -0.143939,0.18169 -0.115468,-0.0168 -0.147428,-0.16098 -0.119439,-0.53883 0.02178,-0.29401 0.02793,-0.31249 0.104,-0.31249 0.08688,0 0.124211,0.0605 0.124211,0.2014 0,0.0819 0.01113,0.0876 0.151782,0.0774 0.147332,-0.0107 0.152107,-0.0149 0.162867,-0.1449 0.01009,-0.12188 0.02053,-0.13393 0.116069,-0.13393 h 0.104983 v 0.40945 c 0,0.36825 -0.0069,0.41316 -0.06908,0.44641 -0.08013,0.0429 -0.123733,0.0465 -0.157107,0.0132 z m 0.516047,-0.009 c -0.0553,-0.035 -0.102018,-0.64311 -0.06174,-0.80359 0.02285,-0.091 0.02861,-0.0926 0.343973,-0.0926 0.316245,0 0.320738,0.001 0.320738,0.0872 0,0.10902 -0.02651,0.12515 -0.24914,0.15152 -0.236558,0.028 -0.25084,0.11844 -0.01871,0.11844 0.147289,0 0.16071,0.007 0.16071,0.0886 0,0.0875 -0.02606,0.1026 -0.229176,0.13321 -0.03766,0.006 -0.07516,0.0304 -0.08333,0.055 -0.0107,0.0321 0.04047,0.0446 0.182427,0.0446 0.221352,0 0.25319,0.0248 0.202645,0.15771 -0.03299,0.0868 -0.0495,0.0923 -0.277032,0.0917 -0.133071,-2.7e-4 -0.264186,-0.0146 -0.291364,-0.0318 z m 0.954836,0.007 c -0.158832,-0.0178 -0.161382,-0.0272 -0.137922,-0.51069 l 0.01819,-0.37499 0.08928,0.0124 c 0.04911,0.007 0.09298,0.0159 0.09749,0.0201 0.0045,0.004 0.01894,0.1473 0.03206,0.31793 l 0.02385,0.31024 h 0.17556 0.175563 l -0.01119,0.11606 c -0.01075,0.11145 -0.01759,0.11622 -0.171904,0.11979 -0.08839,0.002 -0.219329,-0.003 -0.290974,-0.0109 z m 0.707356,-0.0375 c -0.009,-0.0147 -0.02202,-0.2116 -0.02889,-0.43749 l -0.0125,-0.4107 0.246675,0.003 c 0.236547,0.003 0.251579,0.008 0.366061,0.1334 0.06566,0.0717 0.119387,0.15585 0.119387,0.18711 0,0.0931 -0.193967,0.25858 -0.333903,0.28484 -0.09289,0.0174 -0.130371,0.043 -0.130371,0.089 0,0.11803 -0.04246,0.17752 -0.126707,0.17752 -0.04585,0 -0.09073,-0.0121 -0.09975,-0.0268 z m 0.351454,-0.52677 c 0,-0.0469 -0.02761,-0.0753 -0.08035,-0.0828 -0.06591,-0.009 -0.08036,0.006 -0.08036,0.0828 0,0.0773 0.01444,0.0922 0.08036,0.0828 0.05274,-0.007 0.08035,-0.036 0.08035,-0.0828 z m 0.881571,0.1531 c 0.01084,-0.11237 0.0187,-0.11786 0.207687,-0.14502 0.108033,-0.0155 0.324991,-0.0237 0.48213,-0.0182 l 0.285707,0.0101 v 0.125 0.12499 l -0.493395,0.01 -0.493397,0.01 z m -17.499997,-1.30957 c 0.452806,-0.15618 0.776936,-0.45295 1.410512,-1.29147 0.40845,-0.54057 0.913951,-1.0556 1.154716,-1.17648 0.20237,-0.10161 0.191581,-0.0877 0.136736,-0.17557 -0.116929,-0.18723 -0.628837,-0.029 -1.18744,0.36716 -0.211441,0.14994 -0.281789,0.15102 -0.348159,0.005 -0.03072,-0.0674 -0.03091,-0.11273 -7.5e-4,-0.17893 0.05728,-0.12571 0.576556,-0.50033 0.793329,-0.57233 0.175702,-0.0584 0.180034,-0.063 0.120872,-0.12834 -0.03544,-0.0392 -0.108055,-0.0675 -0.171896,-0.0672 -0.169738,9.4e-4 -0.569224,0.11946 -1.006987,0.29874 -0.450867,0.18466 -0.66539,0.23212 -0.746166,0.16508 -0.08932,-0.0741 -0.06294,-0.19005 0.06255,-0.27487 0.249075,-0.16837 1.049786,-0.48531 1.345546,-0.5326 0.07988,-0.0128 0.145243,-0.0352 0.145243,-0.0499 0,-0.0147 -0.08816,-0.12544 -0.195906,-0.24619 -0.213751,-0.23956 -0.304081,-0.38867 -0.304081,-0.50196 0,-0.16173 0.148782,-0.0689 0.388751,0.2425 0.173024,0.22454 0.164756,0.27171 0.104204,-0.59443 l -0.0432,-0.618 -0.448085,0.0229 c -0.428214,0.0219 -1.34695,-0.0232 -1.471454,-0.0722 -0.06023,-0.0237 -0.06362,-0.0157 -0.120318,0.28533 -0.0111,0.0589 -0.02975,0.26215 -0.04143,0.45162 -0.01917,0.31083 -0.01323,0.36142 0.06085,0.51784 0.04516,0.0953 0.184777,0.27341 0.310278,0.3957 0.198887,0.19379 0.22324,0.23156 0.189709,0.29421 -0.05163,0.0965 -0.191916,0.12665 -0.357751,0.077 -0.130008,-0.0389 -0.246097,-0.14461 -0.417064,-0.37957 l -0.07771,-0.10681 -0.112972,0.10714 c -0.166346,0.15776 -0.224501,0.29048 -0.204609,0.46696 0.04048,0.35915 0.384144,0.79408 0.766983,0.97068 0.178078,0.0821 0.254019,0.0952 0.560164,0.0965 0.402472,0.002 0.44692,0.0328 0.286539,0.20017 -0.152275,0.15894 -0.364169,0.2251 -0.649508,0.20282 -0.45942,-0.0359 -0.841913,-0.27728 -1.122881,-0.70866 -0.245318,-0.37664 -0.292706,-0.37284 -0.271989,0.0218 0.01419,0.27036 0.03272,0.33701 0.167799,0.60341 0.347105,0.68455 0.900533,0.98991 1.468018,0.80999 0.295235,-0.0936 0.392847,-0.0956 0.392847,-0.008 0,0.11513 -0.137164,0.24754 -0.380554,0.36736 -0.486427,0.23946 -0.965764,0.11989 -1.442015,-0.35971 -0.244362,-0.24609 -0.419182,-0.54973 -0.51989,-0.90299 -0.02965,-0.104 -0.07106,-0.23313 -0.09202,-0.28695 l -0.03811,-0.0979 -0.102955,0.12955 c -0.127389,0.1603 -0.134375,0.33143 -0.02769,0.67845 0.229954,0.74801 0.784472,1.44377 1.276423,1.60153 0.202884,0.0651 0.483205,0.047 0.76153,-0.0489 z m 18.31481,-1.45463 c 0.02946,-0.009 0.08633,-0.0681 0.126361,-0.1312 l 0.07279,-0.11476 h -1.215615 -1.215618 l -0.01084,-0.11141 c -0.01402,-0.14403 0.02864,-0.15533 0.588859,-0.15596 0.239341,-2.8e-4 0.47337,-0.015 0.520065,-0.0328 0.04669,-0.0178 0.429425,-0.0439 0.850516,-0.0581 l 0.765617,-0.0258 0.161349,-0.11743 c 0.08874,-0.0646 0.189699,-0.14875 0.224347,-0.18703 0.06124,-0.0677 0.05923,-0.0702 -0.07207,-0.0919 -0.07428,-0.0123 -0.267343,-0.0225 -0.429018,-0.0227 -0.283555,-3.8e-4 -0.294745,-0.004 -0.31634,-0.0896 -0.03889,-0.15494 0.0021,-0.1965 0.194008,-0.1965 0.09637,0 0.225701,-0.0101 0.2874,-0.0224 0.136111,-0.0272 0.111393,-0.0683 -0.132779,-0.2206 -0.165323,-0.10313 -0.172431,-0.10417 -0.756165,-0.11082 -0.65454,-0.007 -0.84101,-0.0391 -0.875773,-0.14864 -0.04861,-0.15315 0.02745,-0.17606 0.584702,-0.17606 h 0.521586 l -0.09827,-0.0982 -0.09826,-0.0982 h -4.9811 -4.981096 l -3.6e-5,0.12813 -3.5e-5,0.12813 0.326869,0.0326 c 0.24699,0.0246 0.336299,0.0477 0.365455,0.0944 0.07395,0.11849 -0.04562,0.17702 -0.403257,0.19741 l -0.324781,0.0185 5e-4,0.11111 c 7.15e-4,0.16333 0.0371,0.27183 0.09114,0.27183 0.03884,0 0.03807,0.0228 -0.0042,0.12385 -0.05437,0.13011 -0.07075,0.43185 -0.02496,0.45955 0.01473,0.009 0.26785,0.0352 0.562485,0.0585 0.674482,0.0533 0.767837,0.0793 0.767837,0.21455 v 0.10094 l -0.382475,0.0261 c -0.210363,0.0143 -0.514112,0.0168 -0.674993,0.005 l -0.292517,-0.0206 -0.01319,0.13829 -0.01319,0.13829 3.57203,-0.0162 c 1.96462,-0.009 3.869348,-0.001 4.232731,0.0167 0.620961,0.0309 2.382601,0.0188 2.499933,-0.0172 z m -9.234208,-0.71024 c -0.140643,-0.14912 -0.229826,-0.16298 -0.229826,-0.0357 0,0.0914 -0.07668,0.11888 -0.168646,0.0605 -0.05841,-0.0371 -0.07867,-0.66669 -0.02324,-0.72212 0.02201,-0.022 0.130225,-0.0421 0.240472,-0.0447 0.151539,-0.004 0.22453,0.0132 0.299138,0.0687 0.120358,0.0895 0.148957,0.26092 0.0586,0.35128 -0.05813,0.0581 -0.05826,0.0714 -0.0022,0.22262 0.09503,0.2564 0.01614,0.30144 -0.174292,0.0995 z m -0.0334,-0.48213 c 0,-0.0626 -0.152567,-0.0938 -0.204573,-0.0418 -0.05692,0.0569 0.0064,0.11835 0.109736,0.1064 0.05561,-0.006 0.09484,-0.0331 0.09484,-0.0646 z m 2.209531,0.45112 c -0.147121,-0.14712 -0.15581,-0.16696 -0.152453,-0.34821 0.0053,-0.28684 0.03721,-0.37076 0.140903,-0.37076 0.08405,0 0.08811,0.0107 0.09816,0.2585 0.0088,0.21721 0.02209,0.26471 0.08314,0.29738 0.134068,0.0717 0.174221,0.0186 0.174221,-0.23042 0,-0.28501 0.02123,-0.34331 0.124997,-0.34331 0.102497,0 0.124996,0.0587 0.124996,0.32611 0,0.23721 -0.05828,0.38025 -0.200523,0.49214 -0.139003,0.10934 -0.219291,0.0927 -0.393443,-0.0814 z m 0.831639,0.0907 c -0.04624,-0.0511 -0.05911,-0.13893 -0.05911,-0.40356 0,-0.21547 0.01556,-0.35381 0.04286,-0.38111 0.05982,-0.0598 0.332898,-0.0535 0.456738,0.0105 0.110083,0.0569 0.214673,0.18287 0.214673,0.25849 0,0.0253 -0.03214,0.0735 -0.07143,0.10713 -0.08476,0.0726 -0.09071,0.14899 -0.01899,0.24381 0.08867,0.11724 0.06867,0.19432 -0.05041,0.19432 -0.07836,0 -0.120851,-0.0266 -0.166907,-0.10459 -0.03398,-0.0575 -0.09114,-0.11227 -0.127018,-0.12165 -0.05494,-0.0144 -0.06523,0.005 -0.06523,0.12245 0,0.15523 -0.05712,0.18254 -0.155174,0.0742 z m 0.405167,-0.50485 c 0,-0.0506 -0.140232,-0.11704 -0.199212,-0.0944 -0.02793,0.0107 -0.05078,0.0441 -0.05078,0.0742 0,0.0387 0.03656,0.0547 0.124997,0.0547 0.06875,0 0.124996,-0.0155 0.124995,-0.0345 z m -2.921351,0.49159 c -0.02804,-0.028 -0.04286,-0.17619 -0.04286,-0.42856 v -0.3857 h 0.285707 0.285707 v 0.10714 c 0,0.10499 -0.0036,0.10714 -0.181542,0.10714 -0.229337,0 -0.224987,0.0811 0.0057,0.10714 0.147286,0.0166 0.163306,0.032 0.145435,0.1393 -0.0029,0.0177 -0.06439,0.0461 -0.136535,0.0632 -0.207809,0.0491 -0.200138,0.12874 0.01094,0.11357 0.172953,-0.0124 0.17386,-0.0119 0.184995,0.10357 l 0.01119,0.11607 H 33.61401 c -0.156913,0 -0.280253,-0.0173 -0.305827,-0.0429 z m 3.385246,-0.0112 c -0.0542,-0.0653 -0.03149,-0.7498 0.02682,-0.8081 0.0257,-0.0257 0.09893,0.0188 0.237862,0.14464 0.110404,0.1 0.216633,0.18179 0.236065,0.18179 0.01944,0 0.03534,-0.0734 0.03534,-0.16309 0,-0.15684 0.0038,-0.16265 0.09821,-0.15178 0.09634,0.0111 0.09841,0.0164 0.108462,0.27915 0.01156,0.30214 -0.02709,0.54132 -0.09091,0.56259 -0.02356,0.008 -0.131568,-0.0696 -0.240011,-0.17219 l -0.19717,-0.18648 -5e-4,0.10339 c -0.0011,0.2429 -0.103558,0.34336 -0.214168,0.21008 z m 1.419984,0.0298 c -0.05468,-0.0146 -0.0625,-0.0654 -0.0625,-0.40625 v -0.38955 l 0.09312,-0.0234 c 0.111604,-0.028 0.155549,0.0259 0.156327,0.19165 5e-4,0.10318 0.01165,0.11607 0.100544,0.11607 0.130997,0 0.18571,-0.0594 0.18571,-0.20146 0,-0.13149 0.04039,-0.17034 0.143174,-0.13772 0.0652,0.0207 0.07106,0.0542 0.07056,0.40408 -3.51e-4,0.20983 -0.01428,0.40318 -0.03106,0.42967 -0.057,0.0899 -0.16305,0.0296 -0.198327,-0.1128 -0.0306,-0.12354 -0.04302,-0.13437 -0.142853,-0.12461 -0.09492,0.009 -0.111694,0.0271 -0.127197,0.13528 -0.0179,0.12493 -0.06159,0.15266 -0.187495,0.11901 z m 1.10731,-0.0318 c -0.101458,-0.055 -0.241362,-0.2859 -0.241126,-0.39789 3.51e-4,-0.10597 0.132275,-0.28882 0.254079,-0.35181 0.149631,-0.0774 0.345609,-0.0235 0.475276,0.13057 0.1498,0.17802 0.103566,0.43369 -0.108607,0.60058 -0.110529,0.087 -0.24174,0.0933 -0.379622,0.0186 z m 0.331031,-0.2843 c 0.05968,-0.0719 -0.0029,-0.21555 -0.108401,-0.24906 -0.144225,-0.0458 -0.276275,0.1556 -0.171042,0.26083 0.06028,0.0603 0.225416,0.0533 0.279443,-0.0118 z m -5.296717,0.28245 c -0.014,-0.014 -0.02545,-0.14228 -0.02545,-0.28508 v -0.25964 l -0.116068,-0.0112 c -0.09295,-0.009 -0.113951,-0.0254 -0.10544,-0.0826 0.02339,-0.15724 0.03123,-0.16071 0.362562,-0.16071 0.311538,0 0.322563,0.003 0.343758,0.0873 0.03117,0.12418 -0.01179,0.17342 -0.130582,0.14966 l -0.101383,-0.0203 -0.01035,0.29346 c -0.01004,0.28443 -0.01314,0.29378 -0.100976,0.30402 -0.04984,0.006 -0.102072,-8.7e-4 -0.116068,-0.0149 z m 5.799039,-0.0108 c -0.05656,-0.0358 -0.09989,-0.54013 -0.06005,-0.69886 0.01922,-0.0766 0.03791,-0.0893 0.102668,-0.0699 0.04354,0.0131 0.136453,0.0786 0.206477,0.14568 l 0.127311,0.1219 0.115436,-0.14364 c 0.125378,-0.15602 0.231197,-0.18328 0.289381,-0.0746 0.02033,0.038 0.03697,0.20674 0.03697,0.37499 v 0.30592 h -0.10714 c -0.09204,0 -0.107733,-0.0138 -0.111368,-0.0982 -0.0023,-0.054 -0.0023,-0.11026 0,-0.12499 0.009,-0.0568 -0.07453,-0.0227 -0.164224,0.067 -0.08898,0.089 -0.09621,0.0905 -0.141229,0.0289 -0.0261,-0.0357 -0.04745,-0.0779 -0.04745,-0.0938 0,-0.0159 -0.01607,-0.0289 -0.03571,-0.0289 -0.01964,0 -0.03571,0.053 -0.03571,0.11786 0,0.0648 -0.01928,0.13714 -0.04286,0.16071 -0.0508,0.0508 -0.06606,0.0519 -0.132496,0.01 z m 1.09497,-0.005 c -0.05316,-0.0316 -0.0625,-0.093 -0.0625,-0.41043 v -0.37321 h 0.303564 c 0.300788,0 0.303563,8.2e-4 0.303563,0.0902 0,0.0968 -0.106508,0.15983 -0.270175,0.15983 -0.139654,0 -0.09999,0.066 0.04697,0.0782 0.122429,0.0101 0.133926,0.0203 0.133926,0.11787 0,0.0903 -0.01626,0.10961 -0.105116,0.125 -0.156727,0.0271 -0.112597,0.0885 0.05496,0.0764 0.134025,-0.01 0.144271,-0.004 0.133383,0.0728 -0.01083,0.0764 -0.03094,0.084 -0.243937,0.092 -0.127676,0.005 -0.260262,-0.008 -0.294636,-0.0286 z m -1.972254,-0.98879 c -0.218952,-0.0169 -0.275496,-0.0606 -0.26165,-0.20252 l 0.01075,-0.11018 0.26785,-0.009 c 0.147318,-0.005 0.444632,0.003 0.660697,0.0179 l 0.392846,0.0272 0.01077,0.12852 0.01076,0.12853 -0.275075,0.0233 c -0.275125,0.0232 -0.483308,0.0224 -0.816946,-0.003 z M 25.703087,125.7608 c 0.07366,-0.0229 0.133925,-0.0555 0.133925,-0.0724 0,-0.0633 -0.292457,-0.39783 -0.423835,-0.48477 -0.501751,-0.33205 -1.104989,-0.29788 -1.515189,0.0858 -0.158696,0.14845 -0.310916,0.37624 -0.310916,0.46528 0,0.0565 0.216526,0.0675 1.12497,0.0573 0.524311,-0.006 0.909122,-0.0257 0.991045,-0.0512 z m -1.866022,25.65637 c 0,-0.0569 0.09488,-0.11233 0.130789,-0.0764 0.02068,0.0207 -0.07228,0.13111 -0.110383,0.13111 -0.01122,0 -0.02041,-0.0246 -0.02041,-0.0547 z m 8.392634,-0.84112 c 0,-0.087 0.08346,-0.0747 0.100833,0.0149 0.0068,0.0352 -0.01138,0.0595 -0.04464,0.0595 -0.03313,0 -0.05619,-0.0305 -0.05619,-0.0744 z m -1.893474,-0.0636 c -0.125618,-0.12562 -0.109298,-0.23236 0.05043,-0.32976 0.14765,-0.09 0.209484,-0.0856 0.340348,0.0245 0.132714,0.11167 0.139061,0.20303 0.02222,0.31987 -0.122093,0.12209 -0.281914,0.11642 -0.412992,-0.0147 z m 1.10426,-0.16045 c -0.168817,-0.0838 -0.09442,-0.34437 0.09834,-0.34437 0.08965,0 0.226958,0.11389 0.226055,0.1875 -0.0016,0.13193 -0.190603,0.22332 -0.324395,0.15687 z m 2.753827,-0.0761 c -0.06378,-0.0769 -0.01727,-0.16117 0.0889,-0.16117 0.05034,0 0.100855,0.0243 0.112258,0.054 0.02367,0.0617 -0.04538,0.16025 -0.112258,0.16025 -0.02465,0 -0.06466,-0.0239 -0.0889,-0.0531 z m -17.054877,-0.13544 c -0.09089,-0.0782 -0.09843,-0.0992 -0.06318,-0.17659 0.09625,-0.21125 0.478624,-0.25707 0.669447,-0.0802 0.103772,0.0962 0.113151,0.15213 0.04184,0.24965 -0.03842,0.0525 -0.105765,0.0711 -0.2973,0.0819 -0.223044,0.0126 -0.257861,0.005 -0.350812,-0.0748 z M 34.766978,149.456 c -0.02355,-0.0284 -0.03757,-0.0887 -0.03116,-0.13392 0.0092,-0.0651 0.03413,-0.0823 0.118808,-0.0823 0.08468,0 0.109586,0.0172 0.118811,0.0823 0.01279,0.0902 -0.04826,0.18552 -0.118811,0.18552 -0.02465,0 -0.0641,-0.0232 -0.08765,-0.0516 z m 0.537133,0.002 c -0.02434,-0.0293 -0.03901,-0.0904 -0.03259,-0.13565 0.0092,-0.0651 0.03413,-0.0823 0.118808,-0.0823 0.09864,0 0.10714,0.01 0.10714,0.125 0,0.0995 -0.01519,0.12716 -0.07455,0.13564 -0.041,0.006 -0.09446,-0.0134 -0.118807,-0.0427 z m -16.715828,-0.0311 c -0.04851,-0.0248 -0.112797,-0.0891 -0.142854,-0.14279 -0.04906,-0.0877 -0.04906,-0.10769 2.5e-5,-0.19543 0.09838,-0.17588 0.346202,-0.1978 0.499791,-0.0442 0.202987,0.20299 -0.09129,0.51826 -0.356962,0.38243 z m 15.585904,-0.0283 c -0.08696,-0.0961 -0.03267,-0.19015 0.118508,-0.2053 0.126914,-0.0127 0.181516,0.0841 0.116243,0.20604 -0.04992,0.0933 -0.149957,0.093 -0.234751,-8.1e-4 z m 2.636969,-0.27295 c -0.117864,-0.0228 -0.267475,-0.21602 -0.239565,-0.30937 0.06478,-0.21669 0.520233,-0.52271 0.777951,-0.52271 0.150703,0 0.417875,0.11396 0.542314,0.23133 0.239576,0.22595 0.135418,0.52715 -0.205051,0.59298 -0.156882,0.0303 -0.732713,0.0354 -0.875649,0.008 z m 2.508291,-0.6401 c -0.117504,-0.11751 0.01393,-0.32772 0.151132,-0.24171 0.03437,0.0215 0.06737,0.0717 0.07333,0.11143 0.01056,0.0704 -0.07449,0.1883 -0.135829,0.1883 -0.01684,0 -0.05672,-0.0261 -0.08863,-0.058 z m -0.568338,-0.0547 c -0.07527,-0.10745 -0.01614,-0.20876 0.12185,-0.20876 0.08258,0 0.110047,0.0193 0.127729,0.0898 0.04429,0.17647 -0.145836,0.26713 -0.249579,0.11901 z m 1.105871,0.0208 c -0.03083,-0.0308 -0.05581,-0.0669 -0.0555,-0.0803 0.003,-0.13355 0.223897,-0.14968 0.242682,-0.0177 0.01555,0.10919 -0.110169,0.17501 -0.18718,0.098 z m 2.29006,-0.008 c -0.06198,-0.0685 -0.04598,-0.2188 0.02406,-0.22612 0.179867,-0.0188 0.263265,0.11562 0.145065,0.23382 -0.0718,0.0718 -0.09828,0.0706 -0.169128,-0.008 z m 0.475241,-0.008 c -0.05718,-0.0572 -0.06508,-0.088 -0.03634,-0.14168 0.05293,-0.0989 0.09665,-0.11678 0.178457,-0.073 0.09365,0.0501 0.09459,0.20016 0.0016,0.24995 -0.05616,0.0301 -0.08556,0.0228 -0.143675,-0.0353 z m -3.179913,-1.38679 c -0.162459,-0.13156 0.02106,-0.36316 0.287761,-0.36316 0.126608,0 0.282675,0.10297 0.307803,0.2031 0.0354,0.14103 -0.08678,0.22546 -0.326289,0.22546 -0.129506,0 -0.213786,-0.0205 -0.269275,-0.0654 z m 1.043409,-0.85131 c -0.08793,-0.082 -0.10254,-0.11599 -0.07709,-0.17961 0.07794,-0.19482 0.422217,-0.21222 0.50723,-0.0256 0.03533,0.0775 0.02916,0.10099 -0.04604,0.17499 -0.14121,0.13898 -0.257618,0.14814 -0.3841,0.0302 z m -7.377765,-9.09195 c -0.138589,-0.12384 -0.150821,-0.24457 -0.03832,-0.37827 0.104854,-0.12461 0.184391,-0.13894 0.335998,-0.0605 0.113051,0.0585 0.145407,0.11912 0.145407,0.27262 0,0.0798 -0.02759,0.12156 -0.116068,0.17551 -0.149697,0.0913 -0.216566,0.0894 -0.327013,-0.009 z m 6.240191,-1.10712 c -0.104332,-0.1159 -0.117068,-0.17687 -0.06354,-0.30418 0.06273,-0.1492 0.201441,-0.18672 0.331877,-0.0898 0.134953,0.1003 0.143396,0.25557 0.02057,0.3784 -0.116989,0.11699 -0.193891,0.12113 -0.288914,0.0156 z m -4.615977,-10.65632 c -0.04071,-0.0517 -0.07402,-0.11387 -0.07402,-0.13803 0,-0.0819 0.147589,-0.23214 0.227998,-0.23214 0.106061,0 0.236276,0.12527 0.236276,0.2273 0,0.10047 -0.138693,0.23697 -0.240772,0.23697 -0.04151,0 -0.108772,-0.0423 -0.149482,-0.0941 z m 4.68554,0.003 c -0.321756,-0.0861 -0.624251,-0.30752 -0.779344,-0.57047 -0.334723,-0.56752 -0.05002,-1.3927 0.554046,-1.60582 0.167242,-0.059 0.501319,-0.0735 0.501319,-0.0217 0,0.0178 -0.06885,0.0727 -0.15301,0.12199 -0.145965,0.0855 -0.488105,0.41841 -0.491384,0.47807 -8.5e-4,0.0156 -0.0157,0.10063 -0.03298,0.18902 -0.04971,0.25419 0.01476,0.47824 0.189962,0.66017 0.195277,0.20278 0.379779,0.26013 0.645547,0.20065 0.487359,-0.10906 0.735452,-0.54863 0.613685,-1.08732 l -0.03102,-0.13721 0.114867,0.0594 c 0.169356,0.0876 0.300903,0.39117 0.277297,0.63996 -0.04452,0.46922 -0.524508,1.00001 -0.972253,1.07515 -0.07857,0.0132 -0.16696,0.0294 -0.196423,0.036 -0.02946,0.007 -0.1376,-0.0104 -0.240308,-0.0379 z"
       id="path258" />
  </g>
</svg>
